<svg width="631" height="667" viewBox="0 0 631 667" fill="none" xmlns="http://www.w3.org/2000/svg">
<g filter="url(#filter0_d_187_55)">
<path d="M238.933 397.091C217.596 399.92 206.317 397.552 187.345 386.696C183.59 397.634 179.754 402.697 169.401 409.565C189.82 436.27 198.589 454.28 208.653 492.725C237.205 495.714 250.577 498.773 272.578 505.199C265.13 490.76 260.798 481.05 252.391 461.54C269.829 459.73 280.021 459.189 298.372 458.422C284.083 445.802 280.424 436.563 280.428 416.841C262.296 415.381 253.496 410.13 238.933 397.091Z" fill="#D8C996" stroke="#D8C996"/>
<path d="M254.612 304.774C253.442 306.83 243.155 314.939 243.155 314.939C243.155 314.939 257.51 324.588 264.042 333.038C270.573 341.488 283.642 361.106 286.804 366.77C293.978 379.62 295.321 386.178 295.321 386.178C295.321 386.178 262.671 391.236 240.296 388.704C234.447 388.042 231.571 378.13 230.425 379.146C229.28 380.163 227.487 384.806 225.769 386.331C224.05 387.855 217.815 390.626 218.919 391.391C226.645 396.746 257.552 388.804 278.368 391.554C293.935 393.61 309.542 401.542 310.688 400.526C311.834 399.509 294.482 374.204 279.372 348.944C266.151 326.842 255.165 303.802 254.612 304.774Z" fill="#D8C996" stroke="#D8C996"/>
<path d="M384.056 427.479C360.06 420.717 351.043 416.579 328.87 406.403C327.193 405.633 325.44 404.829 323.599 403.986C326.103 404.688 329.201 405.547 332.625 406.475C341.372 408.846 352.254 411.668 360.769 413.468C369.294 415.269 381.056 416.809 390.675 417.897C395.487 418.441 399.767 418.874 402.845 419.17C403.922 419.273 404.853 419.36 405.607 419.43L384.056 427.479Z" fill="#D8C996" stroke="#D8C996"/>
<path d="M324.971 393.46C325.111 393.471 325.253 393.481 325.395 393.492C331.015 393.909 338.926 394.405 348.087 394.721C366.405 395.351 389.748 395.261 409.798 392.367C423.478 390.393 442.28 388.24 457.667 386.58C465.359 385.75 472.196 385.044 477.11 384.545C479.567 384.295 481.543 384.098 482.905 383.963C482.968 383.956 483.029 383.95 483.089 383.944L446.69 409.01L446.396 408.992C446.09 408.974 445.638 408.947 445.053 408.911C443.883 408.84 442.183 408.734 440.062 408.596C435.819 408.32 429.891 407.916 423.151 407.402C409.668 406.374 392.945 404.91 379.959 403.163C367.504 401.488 351.666 398.635 338.935 396.2C333.562 395.172 328.745 394.219 324.971 393.46Z" fill="#D8C996" stroke="#D8C996"/>
<mask id="path-5-inside-1_187_55" fill="white">
<path d="M312.397 375.606C310.978 376.071 310.085 376.823 308.911 380.734C307.736 384.646 415.696 371.458 467.933 344.441C498.597 363.777 519.275 369.498 551.437 371.085C516.794 359.597 499.389 345.912 473.176 312.315C442.089 340.427 390.649 364.444 312.397 375.606Z"/>
</mask>
<path d="M312.397 375.606C310.978 376.071 310.085 376.823 308.911 380.734C307.736 384.646 415.696 371.458 467.933 344.441C498.597 363.777 519.275 369.498 551.437 371.085C516.794 359.597 499.389 345.912 473.176 312.315C442.089 340.427 390.649 364.444 312.397 375.606Z" fill="#D8C996"/>
<path d="M308.911 380.734L307.953 380.45L308.911 380.734ZM312.397 375.606L312.259 374.616C312.201 374.625 312.144 374.638 312.088 374.656L312.397 375.606ZM473.176 312.315L473.966 311.699L473.306 310.852L472.507 311.575L473.176 312.315ZM551.437 371.085L551.385 372.084L551.755 370.136L551.437 371.085ZM467.933 344.441L468.468 343.595L467.985 343.29L467.475 343.554L467.933 344.441ZM309.869 381.019C310.449 379.087 310.926 378.062 311.364 377.473C311.752 376.952 312.128 376.745 312.706 376.556L312.088 374.656C311.247 374.932 310.467 375.334 309.761 376.283C309.104 377.164 308.547 378.471 307.953 380.45L309.869 381.019ZM312.535 376.596C390.913 365.416 442.563 341.343 473.846 313.056L472.507 311.575C441.614 339.51 390.385 363.472 312.259 374.616L312.535 376.596ZM472.387 312.932C485.515 329.757 496.481 341.655 508.54 350.789C520.609 359.93 533.728 366.267 551.12 372.034L551.755 370.136C534.504 364.415 521.598 358.166 509.751 349.193C497.894 340.212 487.051 328.47 473.966 311.699L472.387 312.932ZM551.49 370.086C519.493 368.508 498.982 362.836 468.468 343.595L467.397 345.288C498.212 364.718 519.057 370.489 551.385 372.084L551.49 370.086ZM467.475 343.554C441.497 356.99 401.572 367.02 368.213 373.203C351.549 376.291 336.559 378.413 325.818 379.518C320.443 380.071 316.152 380.368 313.254 380.406C311.795 380.426 310.737 380.379 310.082 380.28C309.922 380.255 309.799 380.23 309.708 380.206C309.613 380.18 309.577 380.163 309.578 380.163C309.581 380.164 309.603 380.176 309.636 380.203C309.669 380.229 309.723 380.279 309.774 380.358C309.9 380.551 309.935 380.798 309.869 381.019L307.953 380.45C307.85 380.793 307.902 381.154 308.096 381.452C308.262 381.707 308.491 381.855 308.653 381.939C308.975 382.106 309.382 382.197 309.777 382.257C310.599 382.381 311.791 382.426 313.274 382.406C316.26 382.366 320.619 382.063 326.016 381.508C336.819 380.396 351.863 378.266 368.572 375.169C401.959 368.981 442.132 358.91 468.39 345.329L467.475 343.554Z" fill="#D8C996" mask="url(#path-5-inside-1_187_55)"/>
<mask id="path-7-inside-2_187_55" fill="white">
<path d="M301.649 355.633C300.1 356.386 302.038 359.56 301.454 363.948C300.869 368.335 423.451 327.945 474.551 283.144C509.325 301.609 541.494 299.848 579.012 295.741C536.665 289.724 511.23 279.04 474.26 247.898C444.686 283.665 388.693 327.242 301.649 355.633Z"/>
</mask>
<path d="M301.649 355.633C300.1 356.386 302.038 359.56 301.454 363.948C300.869 368.335 423.451 327.945 474.551 283.144C509.325 301.609 541.494 299.848 579.012 295.741C536.665 289.724 511.23 279.04 474.26 247.898C444.686 283.665 388.693 327.242 301.649 355.633Z" fill="#D8C996"/>
<path d="M301.454 363.948L302.449 364.098L302.449 364.098L301.454 363.948ZM301.649 355.633L301.318 354.686C301.276 354.7 301.234 354.717 301.193 354.737L301.649 355.633ZM474.26 247.898L474.9 247.144L474.117 246.485L473.478 247.257L474.26 247.898ZM579.012 295.741L579.142 296.731L579.134 294.755L579.012 295.741ZM474.551 283.144L475.01 282.267L474.393 281.939L473.878 282.391L474.551 283.144ZM302.449 364.098C302.763 361.741 302.396 359.709 302.182 358.299C302.069 357.555 302.015 357.076 302.047 356.748C302.061 356.599 302.088 356.544 302.094 356.535C302.096 356.532 302.094 356.535 302.09 356.538C302.086 356.542 302.089 356.538 302.105 356.53L301.193 354.737C300.396 355.124 300.113 355.841 300.048 356.518C299.989 357.134 300.092 357.864 300.197 358.556C300.419 360.018 300.729 361.766 300.459 363.797L302.449 364.098ZM301.98 356.581C389.185 328.136 445.339 284.461 475.041 248.54L473.478 247.257C444.032 282.87 388.201 326.347 301.318 354.686L301.98 356.581ZM473.619 248.652C492.149 264.26 507.832 274.779 524.221 282.147C540.613 289.516 557.66 293.711 578.89 296.727L579.134 294.755C558.017 291.754 541.173 287.598 525.018 280.335C508.86 273.071 493.34 262.678 474.9 247.144L473.619 248.652ZM578.882 294.751C541.381 298.856 509.487 300.575 475.01 282.267L474.092 284.02C509.163 302.643 541.608 300.84 579.142 296.731L578.882 294.751ZM473.878 282.391C448.459 304.677 405.17 325.925 368.221 341.07C349.764 348.635 332.924 354.663 320.744 358.524C314.651 360.455 309.741 361.838 306.384 362.601C304.697 362.985 303.445 363.202 302.644 363.262C302.225 363.293 302.023 363.273 301.966 363.26C301.933 363.252 302.055 363.271 302.195 363.401C302.389 363.582 302.482 363.85 302.449 364.098L300.459 363.797C300.407 364.182 300.542 364.566 300.837 364.84C301.077 365.064 301.359 365.155 301.542 365.198C301.917 365.286 302.377 365.283 302.836 365.249C303.791 365.177 305.162 364.933 306.871 364.544C310.306 363.763 315.276 362.361 321.391 360.423C333.627 356.544 350.518 350.497 369.02 342.914C405.991 327.76 449.544 306.412 475.224 283.896L473.878 282.391Z" fill="#D8C996" mask="url(#path-7-inside-2_187_55)"/>
<mask id="path-9-inside-3_187_55" fill="white">
<path d="M290.853 337.739C289.261 338.735 290.668 343.332 290.608 348.132C290.549 352.932 425.453 290.555 475.012 234.371C515.417 250.149 579.212 239.599 593.959 232.619C546.926 231.161 512.641 220.786 468.167 191.603C440.589 233.678 382.156 296.79 290.853 337.739Z"/>
</mask>
<path d="M290.853 337.739C289.261 338.735 290.668 343.332 290.608 348.132C290.549 352.932 425.453 290.555 475.012 234.371C515.417 250.149 579.212 239.599 593.959 232.619C546.926 231.161 512.641 220.786 468.167 191.603C440.589 233.678 382.156 296.79 290.853 337.739Z" fill="#D8C996"/>
<path d="M290.608 348.132L291.619 348.176L291.619 348.176L290.608 348.132ZM290.853 337.739L290.409 336.837C290.368 336.855 290.329 336.876 290.291 336.9L290.853 337.739ZM468.167 191.603L468.71 190.786L467.853 190.223L467.312 191.049L468.167 191.603ZM593.959 232.619L594.422 233.512L593.959 231.629L593.959 232.619ZM475.012 234.371L475.36 233.453L474.695 233.193L474.239 233.71L475.012 234.371ZM291.619 348.176C291.649 345.719 291.302 343.252 291.163 341.465C291.091 340.536 291.075 339.81 291.152 339.277C291.231 338.725 291.378 338.602 291.416 338.579L290.291 336.9C289.532 337.374 289.258 338.199 289.151 338.939C289.042 339.699 289.076 340.608 289.149 341.552C289.301 343.513 289.628 345.745 289.598 348.088L291.619 348.176ZM291.298 338.641C382.795 297.605 441.361 234.358 469.022 192.156L467.312 191.049C439.818 232.997 381.518 295.975 290.409 336.837L291.298 338.641ZM467.623 192.419C512.256 221.706 546.729 232.144 593.96 233.608L593.959 231.629C547.124 230.178 513.027 219.866 468.71 190.786L467.623 192.419ZM593.497 231.725C589.923 233.416 583.27 235.365 574.603 237.086C565.96 238.801 555.384 240.276 544.006 241.042C521.219 242.576 495.35 241.259 475.36 233.453L474.664 235.289C495.079 243.261 521.309 244.558 544.208 243.016C555.673 242.245 566.336 240.759 575.065 239.026C583.771 237.298 590.622 235.311 594.422 233.512L593.497 231.725ZM474.239 233.71C449.578 261.668 403.594 291.24 363.687 313.254C343.751 324.251 325.368 333.342 311.981 339.381C305.284 342.402 299.853 344.652 296.108 345.996C294.228 346.67 292.811 347.102 291.886 347.294C291.405 347.394 291.145 347.409 291.044 347.401C290.986 347.396 291.097 347.392 291.251 347.494C291.476 347.643 291.622 347.907 291.619 348.176L289.598 348.088C289.593 348.507 289.803 348.888 290.156 349.122C290.438 349.309 290.742 349.357 290.939 349.373C291.348 349.407 291.848 349.338 292.364 349.231C293.433 349.009 294.956 348.538 296.856 347.857C300.672 346.488 306.157 344.214 312.873 341.184C326.313 335.121 344.742 326.007 364.72 314.986C404.64 292.966 450.887 263.258 475.785 235.032L474.239 233.71Z" fill="#D8C996" mask="url(#path-9-inside-3_187_55)"/>
<mask id="path-11-inside-4_187_55" fill="white">
<path d="M275.55 320.793C274.104 321.965 275.837 326.439 276.426 331.208C277.016 335.977 394.647 264.977 460.687 180.979C502.906 191.939 575.187 171.49 588.874 162.852C542.015 166.87 493.989 159.832 445.919 136.046C430.192 184.596 360.596 269.559 275.55 320.793Z"/>
</mask>
<path d="M275.55 320.793C274.104 321.965 275.837 326.439 276.426 331.208C277.016 335.977 394.647 264.977 460.687 180.979C502.906 191.939 575.187 171.49 588.874 162.852C542.015 166.87 493.989 159.832 445.919 136.046C430.192 184.596 360.596 269.559 275.55 320.793Z" fill="#D8C996"/>
<path d="M276.426 331.208L277.438 331.127L277.438 331.127L276.426 331.208ZM275.55 320.793L274.987 319.957C274.948 319.98 274.911 320.006 274.876 320.034L275.55 320.793ZM445.919 136.046L446.359 135.177L445.292 134.65L444.945 135.723L445.919 136.046ZM588.874 162.852L589.454 163.677L588.747 161.875L588.874 162.852ZM460.687 180.979L460.919 180.033L460.264 179.863L459.866 180.37L460.687 180.979ZM277.438 331.127C277.141 328.726 276.536 326.274 276.23 324.523C276.069 323.604 275.986 322.873 276.012 322.325C276.039 321.753 276.176 321.59 276.223 321.552L274.876 320.034C274.2 320.582 274.012 321.418 273.976 322.164C273.939 322.933 274.055 323.838 274.22 324.78C274.565 326.752 275.121 328.921 275.414 331.289L277.438 331.127ZM276.113 321.629C318.732 295.954 357.465 261.838 387.513 228.066C417.545 194.311 438.972 160.82 446.893 136.368L444.945 135.723C437.139 159.822 415.904 193.087 385.945 226.76C356.001 260.415 317.413 294.398 274.987 319.957L276.113 321.629ZM445.479 136.914C493.742 160.796 541.968 167.861 589.001 163.828L588.747 161.875C542.062 165.878 494.235 158.868 446.359 135.177L445.479 136.914ZM588.294 162.026C584.988 164.112 578.012 166.979 568.658 169.937C559.335 172.886 547.736 175.899 535.245 178.303C510.221 183.119 481.789 185.451 460.919 180.033L460.455 181.925C481.804 187.467 510.622 185.055 535.714 180.226C548.282 177.808 559.958 174.775 569.357 171.802C578.725 168.839 585.916 165.91 589.454 163.677L588.294 162.026ZM459.866 180.37C426.921 222.273 381.08 260.964 343.377 288.594C324.529 302.405 307.731 313.441 295.617 320.722C289.556 324.365 284.683 327.058 281.32 328.689C279.629 329.508 278.36 330.04 277.527 330.295C277.092 330.428 276.868 330.456 276.795 330.455C276.756 330.454 276.874 330.446 277.038 330.54C277.263 330.669 277.41 330.898 277.438 331.127L275.414 331.289C275.461 331.668 275.683 332.008 276.04 332.213C276.335 332.383 276.641 332.413 276.843 332.415C277.255 332.42 277.732 332.31 278.208 332.165C279.195 331.863 280.577 331.276 282.289 330.446C285.729 328.779 290.659 326.051 296.741 322.396C308.912 315.081 325.76 304.011 344.649 290.169C382.418 262.491 428.412 223.683 461.508 181.588L459.866 180.37Z" fill="#D8C996" mask="url(#path-11-inside-4_187_55)"/>
<mask id="path-13-inside-5_187_55" fill="white">
<path d="M259.194 300.707C257.857 301.986 260.12 309.044 263.41 312.23C266.7 315.416 395.919 210.936 452.014 115.374C495.06 123.093 571.377 95.9542 594.193 79.7799C547.846 87.341 477.361 87.1046 427.351 67.0462C416.216 124.007 339.499 237.868 259.194 300.707Z"/>
</mask>
<path d="M259.194 300.707C257.857 301.986 260.12 309.044 263.41 312.23C266.7 315.416 395.919 210.936 452.014 115.374C495.06 123.093 571.377 95.9542 594.193 79.7799C547.846 87.341 477.361 87.1046 427.351 67.0462C416.216 124.007 339.499 237.868 259.194 300.707Z" fill="#D8C996"/>
<path d="M259.194 300.707L258.527 299.947C258.502 299.966 258.478 299.987 258.455 300.009L259.194 300.707ZM427.351 67.0462L427.723 66.1506L426.568 65.6875L426.343 66.837L427.351 67.0462ZM594.193 79.7799L594.824 80.5677L593.986 78.8196L594.193 79.7799ZM452.014 115.374L452.171 114.417L451.46 114.289L451.114 114.878L452.014 115.374ZM264.129 311.56C262.642 310.119 261.321 307.718 260.539 305.476C260.151 304.363 259.915 303.343 259.848 302.554C259.814 302.158 259.826 301.854 259.866 301.639C259.908 301.411 259.965 301.375 259.933 301.406L258.455 300.009C258.089 300.359 257.924 300.823 257.847 301.238C257.767 301.667 257.762 302.149 257.804 302.644C257.888 303.638 258.173 304.821 258.595 306.031C259.432 308.434 260.888 311.155 262.69 312.9L264.129 311.56ZM259.862 301.468C300.106 269.975 339.423 225.726 370.069 182.233C400.697 138.766 422.754 95.9309 428.36 67.2553L426.343 66.837C420.814 95.1225 398.944 137.698 368.353 181.112C337.781 224.499 298.586 268.599 258.527 299.947L259.862 301.468ZM426.98 67.9417C477.246 88.1027 547.952 88.3176 594.399 80.7401L593.986 78.8196C547.74 86.3643 477.477 86.1066 427.723 66.1506L426.98 67.9417ZM593.562 78.992C582.288 86.9846 557.631 97.7746 530.363 105.603C503.083 113.436 473.439 118.23 452.171 114.417L451.857 116.331C473.635 120.236 503.673 115.321 531.016 107.47C558.373 99.6158 583.282 88.7494 594.824 80.5677L593.562 78.992ZM451.114 114.878C423.133 162.545 376.881 212.484 337.174 250.131C317.327 268.948 299.133 284.679 285.701 295.502C278.983 300.915 273.467 305.092 269.536 307.811C267.567 309.174 266.018 310.155 264.926 310.742C264.374 311.039 263.981 311.212 263.731 311.29C263.602 311.331 263.567 311.328 263.598 311.327C263.612 311.327 263.882 311.32 264.129 311.56L262.69 312.9C263.04 313.239 263.474 313.28 263.713 313.275C263.968 313.269 264.217 313.21 264.431 313.143C264.867 313.007 265.393 312.762 265.981 312.446C267.171 311.806 268.791 310.775 270.779 309.4C274.765 306.642 280.322 302.433 287.057 297.005C300.532 286.148 318.765 270.383 338.646 251.533C378.395 213.847 424.799 163.764 452.913 115.87L451.114 114.878Z" fill="#D8C996" mask="url(#path-13-inside-5_187_55)"/>
<path d="M153.501 337.259C152.037 337.715 147.249 344.757 146.401 348.971C145.552 353.184 157.324 344.192 174.955 340.583C192.586 336.973 205.486 334.616 211.386 334.014C224.77 332.651 230.836 333.717 230.836 333.717C230.836 333.717 223.047 362.329 213.495 378.534C210.956 382.842 200.265 382.4 202.639 384.35C205.013 386.3 206.187 386.747 206.928 388.539C207.668 390.331 207.23 392.185 208.25 391.589C215.39 387.42 219.345 372.222 230.513 348.544C236.078 336.742 247.288 329.18 246.795 327.986C246.301 326.791 220.292 330.544 193.65 333.991C170.338 337.007 154.966 336.803 153.501 337.259Z" fill="#B9A375" stroke="#B9A375"/>
<path d="M233.24 313.095C235.159 309.859 237.631 305.564 240.3 300.612C246.27 289.535 253.234 275.144 257.174 261.94C259.857 252.948 263.951 240.753 267.377 230.801C269.089 225.826 270.634 221.413 271.751 218.245C272.25 216.826 272.664 215.657 272.969 214.798L280.087 244.205L280.022 244.318C279.917 244.501 279.761 244.771 279.56 245.12C279.156 245.817 278.568 246.831 277.83 248.093C276.354 250.619 274.278 254.142 271.878 258.133C267.078 266.115 260.988 275.956 255.82 283.415C250.862 290.568 244.032 299.454 238.438 306.555C236.517 308.994 234.742 311.222 233.24 313.095Z" fill="#B9A375" stroke="#B9A375"/>
<mask id="path-17-inside-6_187_55" fill="white">
<path d="M215.608 316.827C215.519 317.837 215.795 318.609 218.277 320.493C220.759 322.377 243.677 252.091 239.809 211.952C263.049 198.846 273.416 187.834 284.242 168.533C265.493 186.417 250.338 193.051 218.099 199.184C229.124 226.647 231.058 265.405 215.608 316.827Z"/>
</mask>
<path d="M215.608 316.827C215.519 317.837 215.795 318.609 218.277 320.493C220.759 322.377 243.677 252.091 239.809 211.952C263.049 198.846 273.416 187.834 284.242 168.533C265.493 186.417 250.338 193.051 218.099 199.184C229.124 226.647 231.058 265.405 215.608 316.827Z" fill="#B9A375"/>
<path d="M218.277 320.493L217.614 321.258L218.277 320.493ZM215.608 316.827L214.62 316.595C214.601 316.656 214.589 316.719 214.584 316.782L215.608 316.827ZM218.099 199.184L217.933 198.233L216.699 198.467L217.136 199.557L218.099 199.184ZM284.242 168.533L285.147 168.962L283.524 167.864L284.242 168.533ZM239.809 211.952L239.306 211.124L238.724 211.452L238.784 212.076L239.809 211.952ZM218.94 319.728C217.713 318.798 217.133 318.213 216.856 317.796C216.627 317.451 216.602 317.221 216.633 316.872L214.584 316.782C214.525 317.442 214.594 318.105 215.101 318.869C215.56 319.562 216.359 320.305 217.614 321.258L218.94 319.728ZM216.597 317.059C232.089 265.495 230.184 226.515 219.063 198.81L217.136 199.557C228.063 226.778 230.027 265.314 214.62 316.595L216.597 317.059ZM218.266 200.134C234.417 197.062 246.368 193.851 256.65 189.135C266.95 184.411 275.523 178.203 284.96 169.203L283.524 167.864C274.212 176.747 265.833 182.798 255.808 187.395C245.766 192.001 234.02 195.172 217.933 198.233L218.266 200.134ZM283.337 168.105C277.952 177.706 272.707 185.197 265.948 191.911C259.187 198.626 250.872 204.601 239.306 211.124L240.312 212.78C251.985 206.197 260.475 200.112 267.414 193.22C274.355 186.326 279.707 178.662 285.147 168.962L283.337 168.105ZM238.784 212.076C240.703 231.981 235.975 259.458 230.423 281.794C227.651 292.946 224.683 302.781 222.257 309.7C221.043 313.164 219.972 315.876 219.136 317.651C218.713 318.549 218.373 319.158 218.126 319.501C217.993 319.687 217.945 319.711 217.987 319.682C218.014 319.664 218.132 319.587 218.325 319.566C218.555 319.54 218.778 319.606 218.94 319.728L217.614 321.258C217.854 321.44 218.164 321.529 218.491 321.493C218.781 321.461 219.006 321.339 219.149 321.241C219.423 321.055 219.644 320.786 219.814 320.55C220.174 320.051 220.577 319.305 221.011 318.383C221.888 316.518 222.985 313.734 224.208 310.247C226.656 303.263 229.641 293.37 232.425 282.169C237.986 259.797 242.783 232.062 240.833 211.828L238.784 212.076Z" fill="#B9A375" mask="url(#path-17-inside-6_187_55)"/>
<mask id="path-19-inside-7_187_55" fill="white">
<path d="M197.898 317.5C197.978 318.676 200.861 318.427 203.866 320.09C206.87 321.753 214.47 234.395 197.368 189.671C221.214 173.78 229.615 153.481 237.924 129.197C220.824 153.442 205.427 165.904 171.733 179.379C188.762 208.186 203.504 255.554 197.898 317.5Z"/>
</mask>
<path d="M197.898 317.5C197.978 318.676 200.861 318.427 203.866 320.09C206.87 321.753 214.47 234.395 197.368 189.671C221.214 173.78 229.615 153.481 237.924 129.197C220.824 153.442 205.427 165.904 171.733 179.379C188.762 208.186 203.504 255.554 197.898 317.5Z" fill="#B9A375"/>
<path d="M203.866 320.09L203.34 320.95L203.34 320.95L203.866 320.09ZM197.898 317.5L196.888 317.449C196.883 317.499 196.883 317.549 196.886 317.6L197.898 317.5ZM171.733 179.379L171.376 178.47L170.269 178.912L170.848 179.892L171.733 179.379ZM237.924 129.197L238.886 129.476L237.094 128.66L237.924 129.197ZM197.368 189.671L196.815 188.865L196.138 189.316L196.416 190.043L197.368 189.671ZM204.392 319.23C202.764 318.329 201.168 317.948 200.084 317.661C199.509 317.509 199.156 317.402 198.94 317.291C198.744 317.191 198.898 317.213 198.91 317.4L196.886 317.6C196.938 318.374 197.482 318.806 197.944 319.042C198.384 319.267 198.955 319.423 199.486 319.563C200.615 319.862 201.963 320.188 203.34 320.95L204.392 319.23ZM198.908 317.55C204.532 255.41 189.748 207.845 172.617 178.865L170.848 179.892C187.776 208.527 202.476 255.698 196.888 317.449L198.908 317.55ZM172.089 180.288C188.988 173.53 201.358 167.002 211.662 159.091C221.972 151.175 230.166 141.91 238.754 129.733L237.094 128.66C228.582 140.728 220.528 149.817 210.44 157.562C200.347 165.311 188.172 171.753 171.376 178.47L172.089 180.288ZM236.963 128.917C228.663 153.172 220.352 173.18 196.815 188.865L197.921 190.477C222.076 174.38 230.566 153.79 238.886 129.476L236.963 128.917ZM196.416 190.043C204.901 212.232 207.28 245.102 207.143 272.307C207.074 285.891 206.378 298.022 205.514 306.643C205.081 310.958 204.608 314.373 204.155 316.645C203.927 317.791 203.712 318.598 203.528 319.074C203.429 319.33 203.374 319.394 203.393 319.372C203.405 319.358 203.502 319.245 203.701 319.177C203.948 319.091 204.203 319.125 204.392 319.23L203.34 320.95C203.623 321.107 203.974 321.149 204.319 321.03C204.615 320.927 204.813 320.738 204.927 320.607C205.15 320.349 205.306 320.011 205.424 319.708C205.672 319.065 205.913 318.122 206.146 316.951C206.617 314.589 207.097 311.103 207.532 306.763C208.404 298.075 209.102 285.883 209.171 272.245C209.309 245.005 206.938 211.834 198.32 189.299L196.416 190.043Z" fill="#B9A375" mask="url(#path-19-inside-7_187_55)"/>
<mask id="path-21-inside-8_187_55" fill="white">
<path d="M181.68 318.82C181.922 320.095 185.678 320.595 189.139 322.058C192.6 323.521 187.97 222.056 162.154 174.897C185.746 154.746 197.29 112.393 196.667 101.254C181.461 129.734 163.627 147.728 129.094 166.398C151.296 195.852 179.464 250.525 181.68 318.82Z"/>
</mask>
<path d="M181.68 318.82C181.922 320.095 185.678 320.595 189.139 322.058C192.6 323.521 187.97 222.056 162.154 174.897C185.746 154.746 197.29 112.393 196.667 101.254C181.461 129.734 163.627 147.728 129.094 166.398C151.296 195.852 179.464 250.525 181.68 318.82Z" fill="#B9A375"/>
<path d="M189.139 322.058L189.554 321.143L189.554 321.143L189.139 322.058ZM181.68 318.82L180.674 318.877C180.676 318.927 180.681 318.977 180.691 319.027L181.68 318.82ZM129.094 166.398L128.628 165.53L127.592 166.09L128.281 167.005L129.094 166.398ZM196.667 101.254L197.671 101.174L197.473 97.6347L195.779 100.808L196.667 101.254ZM162.154 174.897L161.507 174.153L160.882 174.686L161.266 175.386L162.154 174.897ZM189.554 321.143C187.778 320.392 185.875 319.869 184.545 319.426C183.849 319.194 183.328 318.991 182.977 318.793C182.585 318.571 182.645 318.488 182.669 318.613L180.691 319.027C180.836 319.789 181.456 320.247 181.944 320.523C182.474 320.823 183.153 321.075 183.859 321.311C185.334 321.802 187.039 322.261 188.724 322.973L189.554 321.143ZM182.685 318.763C180.462 250.226 152.199 195.367 129.906 165.792L128.281 167.005C150.393 196.338 178.466 250.824 180.674 318.877L182.685 318.763ZM129.56 167.267C164.252 148.511 182.243 130.377 197.554 101.7L195.779 100.808C180.679 129.091 163.001 146.946 128.628 165.53L129.56 167.267ZM195.662 101.333C195.81 103.974 195.232 108.598 193.874 114.427C192.522 120.229 190.416 127.15 187.555 134.354C181.824 148.787 173.117 164.235 161.507 174.153L162.801 175.642C174.782 165.408 183.643 149.604 189.426 135.039C192.323 127.743 194.46 120.727 195.835 114.826C197.203 108.951 197.835 104.103 197.671 101.174L195.662 101.333ZM161.266 175.386C174.081 198.795 181.677 235.794 185.627 266.859C187.6 282.371 188.658 296.361 189.008 306.372C189.183 311.382 189.18 315.375 189.028 318.058C188.951 319.41 188.839 320.382 188.708 320.975C188.676 321.119 188.645 321.228 188.619 321.306C188.59 321.389 188.575 321.412 188.582 321.401C188.586 321.394 188.604 321.365 188.639 321.328C188.674 321.29 188.738 321.232 188.833 321.181C189.07 321.055 189.341 321.053 189.554 321.143L188.724 322.973C189.045 323.109 189.421 323.103 189.757 322.923C190.039 322.772 190.206 322.546 190.297 322.396C190.481 322.096 190.593 321.713 190.673 321.354C190.841 320.598 190.959 319.495 191.037 318.12C191.193 315.35 191.195 311.288 191.019 306.254C190.667 296.178 189.603 282.128 187.624 266.563C183.67 235.471 176.043 198.158 163.041 174.408L161.266 175.386Z" fill="#B9A375" mask="url(#path-21-inside-8_187_55)"/>
<mask id="path-23-inside-9_187_55" fill="white">
<path d="M164.792 323.193C165.207 324.43 168.971 324.694 172.605 325.748C176.239 326.803 160.162 233.395 119.143 167.841C139.788 145.142 146.709 94.6323 144.565 83.6517C133.381 113.652 113.832 141.085 82.1296 163.569C112.59 187.661 153.239 255.689 164.792 323.193Z"/>
</mask>
<path d="M164.792 323.193C165.207 324.43 168.971 324.694 172.605 325.748C176.239 326.803 160.162 233.395 119.143 167.841C139.788 145.142 146.709 94.6323 144.565 83.6517C133.381 113.652 113.832 141.085 82.1296 163.569C112.59 187.661 153.239 255.689 164.792 323.193Z" fill="#B9A375"/>
<path d="M172.605 325.748L172.89 324.789L172.89 324.789L172.605 325.748ZM164.792 323.193L163.805 323.366C163.814 323.417 163.826 323.466 163.842 323.515L164.792 323.193ZM82.1296 163.569L81.5529 162.756L80.463 163.529L81.5051 164.353L82.1296 163.569ZM144.565 83.6517L145.548 83.4552L144.869 79.9777L143.628 83.3081L144.565 83.6517ZM119.143 167.841L118.403 167.172L117.892 167.733L118.293 168.373L119.143 167.841ZM172.89 324.789C171.058 324.258 169.084 323.897 167.734 323.569C167.02 323.395 166.476 323.231 166.1 323.058C165.681 322.865 165.707 322.768 165.741 322.871L163.842 323.515C164.085 324.236 164.737 324.636 165.253 324.873C165.814 325.131 166.516 325.331 167.249 325.509C168.793 325.886 170.518 326.185 172.32 326.708L172.89 324.789ZM165.779 323.019C159.981 289.14 146.887 255.155 131.433 226.623C115.988 198.109 98.1333 174.949 82.7542 162.785L81.5051 164.353C96.5867 176.282 114.287 199.181 129.67 227.581C145.043 255.962 158.051 289.742 163.805 323.366L165.779 323.019ZM82.7064 164.382C114.578 141.779 134.251 114.18 145.503 83.9952L143.628 83.3081C132.512 113.124 113.087 140.392 81.5529 162.756L82.7064 164.382ZM143.583 83.8481C144.089 86.4379 144.074 91.5266 143.405 98.1522C142.739 104.741 141.438 112.749 139.427 121.125C135.394 137.917 128.551 156.015 118.403 167.172L119.882 168.51C130.38 156.968 137.32 138.462 141.373 121.58C143.405 113.118 144.722 105.021 145.397 98.3412C146.068 91.6986 146.114 86.3557 145.548 83.4552L143.583 83.8481ZM118.293 168.373C138.731 201.037 152.974 240.675 161.654 272.044C165.992 287.723 168.935 301.315 170.566 310.911C171.382 315.713 171.866 319.494 172.035 322.027C172.12 323.304 172.121 324.213 172.059 324.764C172.026 325.058 171.985 325.146 171.995 325.127C172.002 325.114 172.066 324.987 172.237 324.881C172.448 324.751 172.692 324.732 172.89 324.789L172.32 326.708C172.631 326.798 172.98 326.766 173.285 326.577C173.55 326.413 173.699 326.182 173.781 326.021C173.94 325.706 174.01 325.322 174.049 324.974C174.131 324.24 174.119 323.187 174.032 321.883C173.857 319.253 173.361 315.397 172.54 310.566C170.897 300.896 167.938 287.237 163.584 271.502C154.879 240.041 140.573 200.199 119.993 167.308L118.293 168.373Z" fill="#B9A375" mask="url(#path-23-inside-9_187_55)"/>
<mask id="path-25-inside-10_187_55" fill="white">
<path d="M145.314 327.312C145.839 328.514 151.636 329.222 154.935 328.146C158.234 327.071 121.339 216.585 68.9242 153.695C87.4617 129.532 90.7318 74.5557 85.8654 55.7233C77.413 86.4581 56.0506 129.711 26.4736 154.486C64.4206 178.265 123.901 259.27 145.314 327.312Z"/>
</mask>
<path d="M145.314 327.312C145.839 328.514 151.636 329.222 154.935 328.146C158.234 327.071 121.339 216.585 68.9242 153.695C87.4617 129.532 90.7318 74.5557 85.8654 55.7233C77.413 86.4581 56.0506 129.711 26.4736 154.486C64.4206 178.265 123.901 259.27 145.314 327.312Z" fill="#B9A375"/>
<path d="M145.314 327.312L144.36 327.603C144.371 327.638 144.383 327.671 144.398 327.704L145.314 327.312ZM26.4736 154.486L25.8265 153.717L24.7764 154.597L25.9475 155.331L26.4736 154.486ZM85.8654 55.7233L86.8341 55.4819L85.8932 51.8406L84.9004 55.4503L85.8654 55.7233ZM68.9242 153.695L68.1279 153.083L67.6437 153.714L68.1576 154.33L68.9242 153.695ZM154.617 327.196C153.148 327.675 151.027 327.774 149.175 327.588C148.257 327.497 147.456 327.34 146.878 327.151C146.587 327.056 146.385 326.963 146.262 326.887C146.118 326.798 146.175 326.792 146.231 326.919L144.398 327.704C144.584 328.132 144.938 328.411 145.224 328.587C145.531 328.775 145.894 328.927 146.272 329.05C147.031 329.298 147.984 329.476 148.994 329.577C150.996 329.778 153.423 329.693 155.253 329.097L154.617 327.196ZM146.268 327.02C135.522 292.872 115.241 255.517 92.9112 223.731C70.5968 191.968 46.1463 165.638 26.9997 153.64L25.9475 155.331C44.7478 167.112 69.0109 193.175 91.2767 224.869C113.527 256.542 133.693 293.71 144.36 327.603L146.268 327.02ZM27.1206 155.254C56.9033 130.307 78.346 86.8473 86.8304 55.9963L84.9004 55.4503C76.48 86.0688 55.198 129.115 25.8265 153.717L27.1206 155.254ZM84.8968 55.9647C87.2828 65.1986 87.699 83.5028 85.1793 102.57C82.6586 121.645 77.2335 141.214 68.1279 153.083L69.7204 154.308C79.1523 142.013 84.631 122.012 87.1632 102.85C89.6963 83.6806 89.3144 65.0804 86.8341 55.4819L84.8968 55.9647ZM68.1576 154.33C94.2726 185.665 116.554 228.905 131.904 264.49C139.575 282.274 145.505 298.123 149.309 309.585C151.212 315.319 152.578 319.94 153.365 323.15C153.759 324.761 154 325.986 154.095 326.806C154.143 327.225 154.146 327.484 154.132 327.617C154.125 327.687 154.119 327.662 154.15 327.592C154.183 327.521 154.31 327.296 154.617 327.196L155.253 329.097C155.663 328.963 155.874 328.651 155.97 328.44C156.066 328.232 156.105 328.015 156.123 327.843C156.159 327.491 156.136 327.061 156.083 326.596C155.974 325.649 155.709 324.328 155.308 322.692C154.503 319.408 153.119 314.73 151.208 308.972C147.384 297.45 141.433 281.546 133.74 263.713C118.363 228.064 95.9903 184.616 69.6907 153.06L68.1576 154.33Z" fill="#B9A375" mask="url(#path-25-inside-10_187_55)"/>
<mask id="path-27-inside-11_187_55" fill="white">
<path d="M226.597 497.923C226.597 497.923 217.09 494.804 210.896 494.804C205.289 494.804 228.84 509.357 229.962 519.752C231.083 530.147 225.476 531.187 216.504 534.306C207.532 537.424 194.254 540.526 183.981 542.622C173.8 544.698 164.347 545.759 162.672 549.898C159.308 558.214 150.336 561.333 148.093 565.491C145.85 569.649 150.85 567.851 155.944 568.609C160.379 569.269 163.794 571.728 163.794 571.728C183.981 551.977 198.56 539.503 245.662 535.345L226.597 497.923Z"/>
</mask>
<path d="M226.597 497.923C226.597 497.923 217.09 494.804 210.896 494.804C205.289 494.804 228.84 509.357 229.962 519.752C231.083 530.147 225.476 531.187 216.504 534.306C207.532 537.424 194.254 540.526 183.981 542.622C173.8 544.698 164.347 545.759 162.672 549.898C159.308 558.214 150.336 561.333 148.093 565.491C145.85 569.649 150.85 567.851 155.944 568.609C160.379 569.269 163.794 571.728 163.794 571.728C183.981 551.977 198.56 539.503 245.662 535.345L226.597 497.923Z" fill="#D8C996"/>
<path d="M210.896 494.804V495.804V494.804ZM226.597 497.923L227.488 497.469L227.301 497.101L226.909 496.973L226.597 497.923ZM245.662 535.345L245.75 536.341L247.226 536.211L246.554 534.891L245.662 535.345ZM163.794 571.728L163.21 572.539L163.892 573.031L164.493 572.442L163.794 571.728ZM148.093 565.491L147.213 565.016L148.093 565.491ZM162.672 549.898L163.599 550.273L162.672 549.898ZM229.962 519.752L228.967 519.86L229.962 519.752ZM183.981 542.622L184.181 543.601L183.981 542.622ZM155.944 568.609L155.796 569.598L155.944 568.609ZM210.896 495.804C213.865 495.804 217.691 496.558 220.829 497.334C222.387 497.72 223.754 498.105 224.731 498.394C225.22 498.539 225.61 498.659 225.878 498.743C226.011 498.785 226.114 498.818 226.183 498.84C226.218 498.851 226.244 498.859 226.261 498.865C226.27 498.868 226.276 498.87 226.28 498.871C226.282 498.872 226.284 498.872 226.285 498.873C226.285 498.873 226.285 498.873 226.285 498.873C226.286 498.873 226.286 498.873 226.286 498.873C226.286 498.873 226.286 498.873 226.597 497.923C226.909 496.973 226.909 496.973 226.909 496.973C226.908 496.973 226.908 496.972 226.908 496.972C226.908 496.972 226.907 496.972 226.906 496.972C226.905 496.971 226.903 496.971 226.901 496.97C226.895 496.968 226.888 496.966 226.878 496.963C226.859 496.957 226.831 496.947 226.795 496.936C226.721 496.912 226.614 496.878 226.476 496.835C226.199 496.748 225.798 496.625 225.299 496.477C224.3 496.181 222.903 495.787 221.31 495.393C218.146 494.61 214.122 493.804 210.896 493.804V495.804ZM225.706 498.377L244.771 535.799L246.554 534.891L227.488 497.469L225.706 498.377ZM245.575 534.349C221.948 536.435 206.391 540.613 194.183 546.797C181.978 552.98 173.191 561.134 163.095 571.013L164.493 572.442C174.583 562.571 183.18 554.613 195.087 548.581C206.991 542.551 222.274 538.414 245.75 536.341L245.575 534.349ZM148.973 565.965C149.438 565.103 150.293 564.23 151.484 563.238C152.695 562.229 154.049 561.256 155.584 560.037C158.561 557.671 161.817 554.679 163.599 550.273L161.745 549.523C160.164 553.433 157.251 556.158 154.34 558.471C152.931 559.59 151.411 560.696 150.204 561.701C148.977 562.723 147.869 563.799 147.213 565.016L148.973 565.965ZM216.832 535.25C219.04 534.483 221.121 533.816 222.916 533.108C224.721 532.396 226.34 531.604 227.651 530.532C228.982 529.443 229.976 528.081 230.547 526.275C231.111 524.49 231.245 522.326 230.956 519.645L228.967 519.86C229.239 522.377 229.093 524.24 228.64 525.672C228.195 527.082 227.437 528.123 226.385 528.984C225.312 529.861 223.918 530.563 222.182 531.248C220.438 531.936 218.453 532.569 216.175 533.361L216.832 535.25ZM230.956 519.645C230.643 516.745 228.801 513.697 226.5 510.841C224.174 507.956 221.255 505.121 218.585 502.647C215.881 500.14 213.486 498.049 212.08 496.555C211.735 496.188 211.47 495.879 211.284 495.625C211.192 495.499 211.127 495.397 211.083 495.318C211.062 495.279 211.048 495.248 211.038 495.226C211.029 495.204 211.027 495.195 211.027 495.197C211.027 495.198 211.032 495.217 211.034 495.25C211.036 495.284 211.034 495.335 211.02 495.398C210.987 495.542 210.904 495.667 210.802 495.749C210.657 495.866 210.593 495.804 210.896 495.804V493.804C210.499 493.804 209.962 493.856 209.546 494.192C209.309 494.383 209.142 494.643 209.071 494.947C209.006 495.232 209.038 495.496 209.092 495.703C209.196 496.098 209.43 496.478 209.671 496.807C209.924 497.153 210.251 497.53 210.624 497.926C212.092 499.486 214.604 501.683 217.226 504.114C219.883 506.577 222.712 509.33 224.942 512.096C227.197 514.894 228.72 517.562 228.967 519.86L230.956 519.645ZM163.599 550.273C163.898 549.535 164.583 548.839 165.764 548.18C166.94 547.525 168.506 546.965 170.398 546.452C174.204 545.42 179.024 544.653 184.181 543.601L183.781 541.642C178.757 542.666 173.76 543.468 169.875 544.521C167.923 545.05 166.175 545.661 164.79 546.434C163.409 547.203 162.284 548.191 161.745 549.523L163.599 550.273ZM184.181 543.601C194.462 541.504 207.794 538.392 216.832 535.25L216.175 533.361C207.27 536.456 194.047 539.548 183.781 541.642L184.181 543.601ZM163.794 571.728C164.378 570.916 164.378 570.916 164.378 570.916C164.378 570.916 164.377 570.916 164.377 570.915C164.377 570.915 164.376 570.915 164.376 570.915C164.375 570.914 164.374 570.913 164.373 570.912C164.37 570.91 164.366 570.908 164.362 570.905C164.353 570.898 164.341 570.89 164.326 570.879C164.295 570.858 164.252 570.828 164.196 570.791C164.084 570.716 163.923 570.61 163.717 570.483C163.305 570.228 162.712 569.884 161.975 569.52C160.508 568.793 158.443 567.97 156.091 567.62L155.796 569.598C157.879 569.908 159.739 570.644 161.088 571.312C161.76 571.645 162.298 571.957 162.665 572.184C162.848 572.297 162.989 572.389 163.081 572.451C163.127 572.482 163.162 572.506 163.183 572.521C163.194 572.528 163.202 572.534 163.206 572.537C163.208 572.538 163.21 572.539 163.21 572.54C163.211 572.54 163.211 572.54 163.211 572.54C163.211 572.54 163.21 572.54 163.21 572.54C163.21 572.54 163.21 572.54 163.21 572.54C163.21 572.539 163.21 572.539 163.794 571.728ZM156.091 567.62C154.743 567.419 153.416 567.39 152.255 567.387C151.056 567.384 150.107 567.406 149.369 567.33C149.008 567.293 148.771 567.238 148.625 567.178C148.488 567.123 148.507 567.095 148.536 567.148C148.564 567.2 148.52 567.181 148.559 566.978C148.6 566.767 148.717 566.441 148.973 565.965L147.213 565.016C146.909 565.58 146.691 566.107 146.596 566.597C146.499 567.095 146.518 567.623 146.779 568.103C147.04 568.584 147.463 568.865 147.872 569.031C148.272 569.194 148.724 569.274 149.165 569.32C150.034 569.409 151.149 569.384 152.25 569.387C153.39 569.39 154.598 569.42 155.796 569.598L156.091 567.62Z" fill="#D8C996" mask="url(#path-27-inside-11_187_55)"/>
<path d="M169.458 575.576C169.123 575.321 168.897 575.134 168.78 575.021C168.783 574.967 168.801 574.873 168.852 574.731C168.959 574.431 169.175 574.026 169.486 573.538C170.103 572.569 171.037 571.369 172.032 570.2C173.025 569.033 174.065 567.912 174.887 567.105C175.299 566.7 175.648 566.383 175.904 566.179C175.97 566.127 176.025 566.085 176.071 566.053C176.073 566.054 176.075 566.055 176.076 566.056C177.501 566.958 185.756 572.181 197.474 571.194C198.384 571.117 199.03 571.1 199.458 571.131C199.503 571.134 199.544 571.137 199.583 571.141C199.375 571.306 199.068 571.506 198.666 571.742C197.688 572.314 196.258 573.025 194.612 573.836C194.471 573.905 194.329 573.975 194.185 574.046C192.657 574.797 190.979 575.623 189.354 576.483C186.91 577.776 184.747 579.332 183.148 580.557C182.641 580.946 182.183 581.308 181.795 581.614C181.575 581.787 181.378 581.943 181.208 582.075C180.966 582.264 180.777 582.406 180.639 582.499C180.606 582.521 180.579 582.539 180.556 582.553C180.537 582.547 180.513 582.539 180.484 582.529C180.373 582.488 180.226 582.423 180.043 582.335C179.679 582.159 179.204 581.902 178.651 581.585C177.547 580.951 176.156 580.092 174.761 579.196C173.367 578.299 171.974 577.369 170.866 576.594C170.311 576.206 169.831 575.859 169.458 575.576ZM199.942 571.216C199.942 571.217 199.941 571.216 199.939 571.214C199.941 571.216 199.943 571.216 199.942 571.216ZM180.478 582.596C180.478 582.596 180.482 582.594 180.489 582.592C180.481 582.595 180.478 582.597 180.478 582.596Z" fill="#D8C996" stroke="#D8C996"/>
<path d="M150.561 572.264C150.637 572.282 150.731 572.306 150.846 572.34C151.122 572.42 151.47 572.536 151.887 572.68C152.059 572.74 152.243 572.804 152.436 572.871C153.173 573.128 154.057 573.436 155.037 573.744C157.394 574.485 160.354 575.244 163.342 575.337C164.149 582.838 167.175 590.878 169.877 597.244C170.567 598.87 171.237 600.389 171.845 601.764L171.953 602.009C172.518 603.288 173.025 604.433 173.441 605.422C173.885 606.477 174.218 607.335 174.408 607.972C174.495 608.267 174.547 608.497 174.569 608.669C174.404 608.604 174.184 608.495 173.905 608.333C173.191 607.919 172.207 607.23 171.035 606.339C168.698 604.56 165.669 602.02 162.662 599.39C159.657 596.761 156.68 594.049 154.448 591.928C153.331 590.867 152.404 589.957 151.754 589.282C151.428 588.943 151.177 588.669 151.008 588.468C150.923 588.366 150.866 588.29 150.831 588.239C150.83 588.238 150.83 588.237 150.829 588.237L150.823 588.14C150.815 588.019 150.804 587.841 150.789 587.614C150.761 587.16 150.722 586.511 150.678 585.733C150.59 584.176 150.485 582.101 150.415 580.027C150.345 577.95 150.311 575.885 150.363 574.343C150.389 573.569 150.436 572.946 150.507 572.525C150.525 572.418 150.544 572.332 150.561 572.264Z" fill="#D8C996" stroke="#D8C996"/>
<path d="M281.957 525.24L282.069 525.083L282.046 524.891C280.943 515.552 277.002 502.255 272.928 490.795C270.889 485.06 268.812 479.773 267.033 475.656C266.144 473.598 265.328 471.829 264.626 470.441C263.93 469.065 263.331 468.028 262.873 467.463C262.492 466.992 262.312 466.582 262.255 466.238C262.199 465.9 262.257 465.594 262.403 465.31C262.708 464.72 263.417 464.195 264.351 463.824C265.272 463.458 266.325 463.277 267.199 463.307C267.635 463.322 268.005 463.389 268.284 463.497C268.565 463.605 268.709 463.738 268.773 463.857C268.823 463.949 268.923 464.193 269.081 464.618C269.233 465.03 269.428 465.577 269.666 466.249L269.746 466.474C270.213 467.791 270.832 469.536 271.602 471.604C273.231 475.98 275.539 481.807 278.53 488.125C284.494 500.722 293.206 515.334 304.732 524.258C304.801 524.366 304.813 524.434 304.813 524.47C304.814 524.507 304.803 524.571 304.722 524.676C304.534 524.917 304.102 525.216 303.318 525.607C302.555 525.989 301.542 526.42 300.273 526.958L300.138 527.016C298.903 527.539 297.445 528.158 295.782 528.913C288.879 532.046 278.464 537.527 265.526 548.477C252.555 559.454 247.722 569.424 246.014 577.602C245.162 581.684 245.092 585.3 245.162 588.339C245.18 589.098 245.206 589.822 245.231 590.506L245.233 590.553C245.258 591.221 245.281 591.85 245.294 592.443C245.32 593.661 245.301 594.696 245.168 595.56C244.62 599.115 242.969 602.954 241.157 606.314C239.348 609.666 237.399 612.505 236.284 614.055C236.094 614.32 235.739 614.55 235.179 614.719C234.624 614.886 233.919 614.977 233.101 615.001C231.467 615.048 229.471 614.827 227.52 614.504C225.573 614.181 223.694 613.762 222.299 613.423C221.602 613.253 221.028 613.104 220.628 612.997C220.531 612.971 220.444 612.948 220.368 612.927V609.15V605.105C223.212 599.13 224.572 594.383 224.814 589.568C225.053 584.833 224.209 580.068 222.691 574.058C252.618 557.596 266.348 547.103 281.957 525.24Z" fill="#D8C996" stroke="#D8C996"/>
<path d="M249.587 583.753C249.913 581.164 250.148 579.217 250.591 575.373C258.948 575.827 268.03 574.801 275.049 573.78C277.257 573.459 279.278 573.136 281.002 572.86C282.062 572.69 283.01 572.539 283.82 572.416C284.897 572.254 285.732 572.143 286.293 572.105C286.305 572.104 286.317 572.103 286.329 572.102C286.329 572.103 286.328 572.103 286.328 572.104C286.049 572.419 285.632 572.83 285.092 573.319C284.013 574.295 282.476 575.549 280.656 576.906C277.042 579.601 272.347 582.673 267.974 584.744C261.467 584.889 257.187 584.48 250.037 583.796C249.888 583.782 249.738 583.768 249.587 583.753ZM286.668 571.647C286.668 571.647 286.668 571.648 286.667 571.651C286.668 571.649 286.668 571.647 286.668 571.647Z" fill="#D8C996" stroke="#D8C996"/>
<path d="M240.591 617.433C243.143 609.585 244.896 606.205 247.819 600.972C250.451 607.713 254.475 614.978 257.748 620.568C258.774 622.319 259.737 623.926 260.559 625.295C261.107 626.208 261.592 627.016 261.989 627.691C262.331 628.272 262.609 628.756 262.816 629.135C262.751 629.115 262.685 629.094 262.616 629.072C262.032 628.889 261.269 628.66 260.388 628.402C258.625 627.886 256.384 627.254 254.148 626.64C251.913 626.027 249.681 625.431 247.936 624.988C247.064 624.767 246.311 624.583 245.739 624.454C245.453 624.39 245.209 624.338 245.016 624.303C244.857 624.273 244.7 624.248 244.581 624.243C244.578 624.241 244.573 624.239 244.568 624.235C244.526 624.21 244.463 624.16 244.379 624.076C244.21 623.908 244.007 623.652 243.777 623.321C243.32 622.662 242.805 621.771 242.317 620.867C241.83 619.965 241.378 619.062 241.047 618.384C240.881 618.045 240.746 617.762 240.653 617.565C240.629 617.515 240.609 617.471 240.591 617.433ZM244.596 624.25C244.596 624.25 244.595 624.25 244.594 624.25L244.596 624.25Z" fill="#D8C996" stroke="#D8C996"/>
<path d="M234.096 635.001C232.666 634.693 231.454 634.506 230.683 634.454C230.644 634.208 230.582 633.927 230.505 633.626C230.364 633.074 230.159 632.401 229.909 631.651C229.407 630.15 228.715 628.319 227.959 626.494C227.203 624.67 226.381 622.843 225.62 621.353C225.24 620.608 224.872 619.941 224.533 619.398C224.283 619 224.038 618.649 223.805 618.381C223.934 618.373 224.098 618.374 224.297 618.387C225.182 618.446 226.553 618.718 228.202 619.08C228.724 619.195 229.273 619.319 229.838 619.447C232.687 620.089 235.975 620.83 238.602 621.059C240.518 625.164 243.355 629.709 245.698 633.463C245.895 633.779 246.089 634.089 246.278 634.393C247.529 636.401 248.584 638.123 249.225 639.376C249.549 640.008 249.747 640.484 249.822 640.801C249.836 640.861 249.844 640.91 249.849 640.949L249.838 640.952C249.723 640.928 249.552 640.875 249.318 640.786C248.765 640.573 247.992 640.208 247.05 639.755C246.917 639.691 246.781 639.625 246.642 639.558C244.831 638.684 242.53 637.574 240.224 636.746C238.052 635.966 235.881 635.384 234.096 635.001Z" fill="#D8C996" stroke="#D8C996"/>
<path d="M305.793 468.472C300.439 473.24 296.808 477.493 294.375 482.433C291.925 487.407 290.71 493.038 290.131 500.522C282.245 487.97 278.363 480.84 275.476 470.358C288 470.385 294.892 469.805 305.793 468.472Z" fill="#D8C996" stroke="#D8C996"/>
<path d="M316.481 491.266C309.637 491.889 305.028 493.212 296.698 497.103C297.133 492.115 297.922 488.37 299.491 484.99C301.073 481.581 303.464 478.507 307.154 474.894C309.858 481.67 312.054 485.494 316.481 491.266Z" fill="#D8C996" stroke="#D8C996"/>
<path d="M373.965 534.634L358.052 532.791L328.216 500.526L373.965 534.634Z" fill="#D8C996" stroke="#D8C996"/>
<path d="M387.266 593.125C363.146 562.272 351.249 544.344 335.228 515.231C345.435 527.839 359.706 543.919 373.156 557.526L373.161 557.532L373.167 557.537C383.687 567.541 393.699 576.748 401.845 584.239C403.794 586.031 405.635 587.725 407.352 589.308C411.8 593.41 415.403 596.766 417.845 599.161C419.067 600.36 419.989 601.309 420.579 601.988C420.736 602.168 420.865 602.324 420.968 602.458C420.737 602.431 420.449 602.386 420.107 602.324C419.119 602.144 417.741 601.827 416.095 601.414C412.808 600.589 408.493 599.388 404.198 598.153C399.903 596.918 395.632 595.649 392.435 594.69C390.837 594.21 389.507 593.807 388.576 593.524C388.111 593.383 387.746 593.272 387.497 593.196L387.266 593.125Z" fill="#D8C996" stroke="#D8C996"/>
<path d="M330.18 518.619C329.083 515.503 327.95 512.287 326.768 508.948C336.452 526.509 350.705 550.439 363.719 569.318L363.723 569.324L363.728 569.331C373.842 583.082 383.496 595.76 391.351 606.075C393.229 608.542 395.005 610.874 396.66 613.054C400.948 618.702 404.42 623.32 406.761 626.61C407.934 628.256 408.816 629.56 409.375 630.489C409.604 630.869 409.772 631.176 409.883 631.412C409.586 631.339 409.184 631.213 408.684 631.033C407.535 630.622 405.932 629.959 404.021 629.119C400.203 627.441 395.193 625.076 390.206 622.666C385.221 620.257 380.263 617.806 376.552 615.957C374.696 615.032 373.152 614.259 372.072 613.716C371.532 613.444 371.108 613.231 370.819 613.085L370.515 612.932C349.799 574.306 342.057 552.33 330.18 518.619Z" fill="#D8C996" stroke="#D8C996"/>
<path d="M136.233 411.088C136.231 411.025 136.228 410.956 136.226 410.883C136.211 410.415 136.196 409.749 136.194 408.959C136.191 407.376 136.243 405.305 136.462 403.329C136.683 401.335 137.067 399.511 137.691 398.376C138.001 397.812 138.337 397.481 138.679 397.343C138.999 397.214 139.42 397.217 140.005 397.531C142.742 399.002 144.42 399.356 145.971 398.783C146.719 398.506 147.398 398.027 148.118 397.453C148.401 397.227 148.686 396.991 148.986 396.741C149.411 396.389 149.867 396.01 150.394 395.599C155.444 398.073 159.449 398.256 162.369 397.132C165.345 395.987 167.102 393.516 167.647 390.958C167.759 390.43 167.95 390.149 168.144 389.999C168.335 389.851 168.595 389.779 168.955 389.806C169.708 389.862 170.705 390.338 171.755 391.024C172.784 391.696 173.789 392.521 174.542 393.183C174.917 393.512 175.227 393.799 175.442 394.004C175.523 394.08 175.59 394.145 175.643 394.195C175.795 396.831 175.265 399.216 174.046 401.335C172.825 403.459 170.896 405.343 168.212 406.945C168.114 406.917 167.985 406.882 167.829 406.84C167.453 406.741 166.919 406.609 166.277 406.476C164.998 406.213 163.279 405.946 161.55 405.946C161.262 405.946 161.008 406.075 160.807 406.214C160.6 406.357 160.395 406.551 160.195 406.762C159.876 407.1 159.525 407.537 159.16 407.99C159.071 408.1 158.982 408.211 158.892 408.322C157.935 409.502 156.887 410.696 155.746 411.184C155.698 411.205 155.601 411.226 155.427 411.223C155.258 411.221 155.051 411.196 154.803 411.153C154.556 411.111 154.285 411.054 153.987 410.99L153.935 410.979C153.656 410.92 153.356 410.856 153.049 410.799C151.777 410.561 150.186 410.394 148.936 411.228C148.185 411.73 147.849 412.606 147.61 413.228C147.595 413.268 147.58 413.306 147.566 413.343C147.431 413.692 147.327 413.939 147.209 414.103C147.108 414.243 147.042 414.262 146.971 414.262C146.971 414.262 146.962 414.262 146.942 414.259C146.923 414.255 146.896 414.249 146.862 414.239C146.792 414.219 146.704 414.186 146.593 414.138C146.37 414.042 146.095 413.903 145.76 413.727C145.665 413.677 145.565 413.624 145.462 413.57C144.847 413.245 144.09 412.845 143.231 412.464C141.35 411.629 138.927 410.857 136.233 411.088Z" fill="#D8C996" stroke="#D8C996"/>
<path d="M38.4932 486.238C38.3568 486.989 38.2174 487.756 38.073 488.539C35.5718 480.23 33.7744 473.931 32.8449 469.153C31.8474 464.026 31.8817 460.789 32.9849 458.723C32.9935 458.714 33.0031 458.704 33.0137 458.693C33.0646 458.641 33.1371 458.565 33.2255 458.47C33.4019 458.281 33.6426 458.013 33.8998 457.701C34.4029 457.089 35.0121 456.253 35.2928 455.472C36.37 452.477 37.5433 449.384 38.7586 446.18C41.326 439.413 44.0812 432.15 46.515 424.265C49.1584 415.702 51.4056 405.024 52.9908 396.498C53.7838 392.233 54.412 388.502 54.8419 385.837C55.0569 384.504 55.2223 383.438 55.334 382.705C55.3844 382.374 55.4239 382.111 55.452 381.922C68.5309 379.381 75.4507 376.732 83.2803 372.585C85.2051 371.565 86.467 371.288 87.4023 371.359C88.3264 371.43 89.0106 371.845 89.7961 372.42C89.9111 372.504 90.0286 372.592 90.1492 372.682C90.8392 373.198 91.6336 373.792 92.6753 374.217C93.9169 374.725 95.488 374.989 97.6869 374.718C99.0663 374.548 100.338 373.901 101.484 373.102C102.612 372.316 103.654 371.356 104.582 370.501L104.629 370.457C105.59 369.572 106.402 368.832 107.104 368.428C107.45 368.228 107.725 368.138 107.941 368.13C108.136 368.122 108.314 368.179 108.501 368.351C108.722 368.556 108.971 368.906 109.237 369.4C109.5 369.886 109.763 370.482 110.021 371.153C110.538 372.494 111.023 374.099 111.442 375.651C111.86 377.201 112.209 378.688 112.453 379.788C112.575 380.337 112.671 380.79 112.736 381.104C112.769 381.262 112.794 381.385 112.811 381.468L112.83 381.563L112.834 381.586C113.57 386.18 114.399 389.908 115.476 392.755C116.551 395.597 117.897 397.63 119.71 398.743C121.542 399.868 123.754 399.997 126.42 399.247C128.787 398.581 131.554 397.211 134.814 395.168C132.099 403.245 132.015 407.524 131.911 412.773C131.909 412.861 131.908 412.95 131.906 413.038C128.27 411.869 125.376 411.242 123.021 411.204C120.51 411.163 118.59 411.793 117.05 413.162C115.53 414.512 114.432 416.539 113.46 419.187C112.513 421.766 111.666 424.996 110.681 428.868C90.6531 431.778 76.3717 436.633 67.0753 442.781C57.885 448.858 53.5364 456.223 53.3914 464.21C50.4483 464.561 48.1522 465.388 46.3312 466.684C44.4179 468.045 43.0672 469.897 42.0352 472.167C41.0063 474.431 40.2873 477.127 39.6437 480.194C39.2524 482.058 38.8851 484.081 38.4932 486.238Z" fill="#D8C996" stroke="#D8C996" stroke-linejoin="round"/>
<path d="M47.6584 452.524V437.778C47.6584 436.423 48.6037 435.186 50.2369 434.112C51.855 433.048 54.0391 432.221 56.2521 431.666C58.4628 431.111 60.6621 430.836 62.2926 430.856C63.1136 430.866 63.7546 430.95 64.1732 431.089C64.3831 431.159 64.5026 431.232 64.5621 431.287C64.5894 431.312 64.5982 431.328 64.6004 431.332C64.6017 431.335 64.6023 431.336 64.6023 431.342C64.6023 431.419 64.5749 431.577 64.4866 431.836C64.4018 432.085 64.2729 432.392 64.1008 432.753C63.7568 433.473 63.2546 434.378 62.6285 435.406C61.3773 437.46 59.6493 439.98 57.7518 442.462C55.8536 444.945 53.7943 447.379 51.8818 449.268C50.9254 450.213 50.013 451.014 49.182 451.615C48.6191 452.022 48.1085 452.326 47.6584 452.524Z" fill="#0D0D0D" stroke="#D8C996" stroke-linejoin="round"/>
<path d="M72.1575 424.643C72.0048 424.646 71.8665 424.649 71.7434 424.651C73.8471 418.198 74.8706 413.335 75.8823 408.398C75.9196 408.216 75.9568 408.034 75.9941 407.852C76.9836 403.019 77.9993 398.058 80.0412 391.387C87.6268 392.04 91.8195 392.288 98.4489 392.389C98.5075 392.498 98.5835 392.642 98.6741 392.817C98.9023 393.26 99.2224 393.905 99.5874 394.713C100.318 396.329 101.225 398.587 101.936 401.161C103.365 406.336 103.964 412.657 100.905 417.619C99.882 419.278 97.5801 420.596 94.5476 421.614C91.5427 422.622 87.9341 423.299 84.4438 423.752C80.9572 424.205 77.6075 424.431 75.1279 424.544C73.8886 424.601 72.8678 424.629 72.1575 424.643Z" fill="#0D0D0D" stroke="#D8C996" stroke-linejoin="round"/>
<path d="M90.4238 448.685C90.4203 448.716 90.4172 448.745 90.4146 448.772C79.5283 455.318 74.0196 462.912 65.6023 478.87V457.48C66.8806 454.356 69.0768 450.793 71.2468 447.737C73.4127 444.686 75.5197 442.185 76.6155 441.156C83.8288 437.053 92.7591 434.62 98.751 433.789C100.25 433.581 101.555 433.475 102.596 433.466C103.657 433.458 104.382 433.552 104.763 433.703C104.843 433.735 104.892 433.763 104.919 433.783C104.913 433.794 104.905 433.807 104.894 433.823C104.813 433.943 104.637 434.119 104.314 434.347C103.998 434.57 103.567 434.823 103.007 435.106C96.7667 438.262 93.6059 441.701 92.0086 444.393C91.211 445.737 90.8076 446.888 90.6039 447.712C90.5021 448.124 90.4502 448.453 90.4238 448.685ZM104.938 433.74C104.938 433.74 104.938 433.742 104.936 433.746C104.937 433.742 104.937 433.74 104.938 433.74Z" fill="#D8C996" stroke="#D8C996"/>
</g>
<defs>
<filter id="filter0_d_187_55" x="0.973633" y="30.2233" width="618.719" height="636.744" filterUnits="userSpaceOnUse" color-interpolation-filters="sRGB">
<feFlood flood-opacity="0" result="BackgroundImageFix"/>
<feColorMatrix in="SourceAlpha" type="matrix" values="0 0 0 0 0 0 0 0 0 0 0 0 0 0 0 0 0 0 127 0" result="hardAlpha"/>
<feOffset/>
<feGaussianBlur stdDeviation="12.75"/>
<feComposite in2="hardAlpha" operator="out"/>
<feColorMatrix type="matrix" values="0 0 0 0 0 0 0 0 0 0 0 0 0 0 0 0 0 0 1 0"/>
<feBlend mode="normal" in2="BackgroundImageFix" result="effect1_dropShadow_187_55"/>
<feBlend mode="normal" in="SourceGraphic" in2="effect1_dropShadow_187_55" result="shape"/>
</filter>
</defs>
</svg>
