<svg width="1519" height="541" viewBox="0 0 1519 541" fill="none" xmlns="http://www.w3.org/2000/svg">
<ellipse cx="1146.63" cy="203.299" rx="2.02864" ry="1.60161" fill="black"/>
<ellipse cx="625.028" cy="59.6016" rx="2.02864" ry="1.60161" fill="black"/>
<ellipse cx="723.028" cy="283.602" rx="2.02864" ry="1.60161" fill="black"/>
<ellipse cx="1353.55" cy="144.039" rx="2.02864" ry="1.60161" fill="black"/>
<ellipse cx="1390.07" cy="176.071" rx="2.02864" ry="1.60161" fill="black"/>
<ellipse cx="1501.64" cy="328.225" rx="2.02864" ry="1.60161" fill="black"/>
<ellipse cx="1478.31" cy="330.627" rx="5.07159" ry="4.00403" fill="black"/>
<ellipse cx="839.294" cy="303.4" rx="5.07159" ry="4.00403" fill="black"/>
<ellipse cx="1186.19" cy="23.1168" rx="5.07159" ry="4.00403" fill="black"/>
<line y1="-0.5" x2="1.61682" y2="-0.5" transform="matrix(0.224421 0.974492 -0.989854 0.142089 935.655 44.7388)" stroke="black"/>
<line y1="-0.5" x2="1.61682" y2="-0.5" transform="matrix(0.224421 0.974492 -0.989854 0.142089 1310.95 150.445)" stroke="black"/>
<line y1="-0.5" x2="1.61682" y2="-0.5" transform="matrix(0.224421 0.974492 -0.989854 0.142089 1035.06 339.436)" stroke="black"/>
<line y1="-0.5" x2="1.61682" y2="-0.5" transform="matrix(0.224421 0.974492 -0.989854 0.142089 1138.52 211.307)" stroke="black"/>
<line y1="-0.5" x2="1.61682" y2="-0.5" transform="matrix(0.224421 0.974492 -0.989854 0.142089 1024.91 280.176)" stroke="black"/>
<line y1="-0.5" x2="1.61682" y2="-0.5" transform="matrix(0.224421 0.974492 -0.989854 0.142089 486 262)" stroke="black"/>
<line y1="-0.5" x2="1.61682" y2="-0.5" transform="matrix(0.224421 0.974492 -0.989854 0.142089 955.941 281.778)" stroke="black"/>
<path d="M975.214 222.518C975.214 222.518 962.18 236.729 958.984 247.343C948.89 280.875 1019.04 284.463 1024.92 318.615C1029.91 347.645 996.983 361.416 998.543 390.687C999.395 406.684 1009.7 430.728 1009.7 430.728" stroke="black"/>
<path d="M989.413 212.108C989.413 212.108 959.136 237.53 955.941 248.144C945.846 281.676 1023.38 278.857 1029.26 313.009C1034.26 342.04 1001.33 355.811 1002.89 385.082C1003.74 401.078 1015.76 430.728 1015.76 430.728" stroke="black" stroke-width="0.5"/>
<path d="M458.999 33.0001L491.999 93.0001C491.999 93.0001 512.982 136.336 512.999 166C513.012 187.521 511.672 200.775 501.999 220C494.625 234.656 475.999 253 475.999 253" stroke="black" stroke-width="0.5"/>
<path d="M1518.91 265.3C1518.91 265.3 1391.01 241.408 1393.91 279.054C1395.7 302.276 1333.52 380.334 1314.55 419.559C1301.74 446.054 1345.55 469.382 1380.04 469.574C1404.9 469.712 1423.36 417.267 1411.19 388.863C1402.24 367.992 1482.62 340.41 1482.62 340.41C1482.62 340.41 1447.2 376.86 1439.44 405.838C1432.29 432.531 1453.02 451.453 1447.05 461.938C1434.17 484.564 1404.19 481.164 1379.79 496.8C1313.61 539.225 1280.99 501.502 1267.84 424.905C1261.51 388.002 1304.05 353.414 1273.81 324.835C1166.46 223.383 1340.16 219.081 1330.06 158.576C1324.31 124.113 1183.96 49.6523 1206.38 151.482C1228.8 253.311 1109.01 243.122 1100.56 302.25C1100.56 302.25 1082.83 242.089 1145.96 216.013C1209.08 189.936 1073.01 74.703 1067.7 165.927C1061.03 178.867 1052.17 191.337 1037.55 201.796C1004 225.789 921.006 218.366 939.733 250.904C950.886 270.281 996.283 280.375 983.72 323.223C973.178 359.175 965.569 383.436 982.877 417.716C999.095 449.835 969.904 466.883 899.334 458.894C862.177 454.688 904.934 513.382 925.035 534.315C945.135 555.248 806.787 449.088 858.934 439.45C931.196 426.094 983.583 401.508 900.305 349.987C883.937 339.861 879.583 328.005 859.976 322.535C807.555 307.911 782.047 416.6 782.047 416.6C782.047 416.6 734.918 349.965 738.503 302.25C741.246 265.742 790 129 697 165.927C656.078 182.176 751.278 40.205 711 57.9996C675.256 73.7912 662.518 160.992 650 198C632.341 250.207 704 291 704 291C704 291 606.088 288.009 604 250.904C595 90.9996 697.051 13.6757 620 48.9996C556.197 78.2503 536 238 566 225C592.191 213.65 469 308 469 308C469 308 520.887 232.822 525 165.927C526.435 142.595 509.031 97.7082 488 52.8709C409.36 -44.5539 383.239 90.6841 428.376 164.911C428.619 165.243 428.827 165.581 429 165.927C428.791 165.59 428.583 165.251 428.376 164.911C419.79 153.159 368.544 148.774 317 52.871C264 -45.7398 240.665 37.0156 191 33C138.076 28.7208 39.5966 -17.7744 55 33C65.131 66.3949 119.845 49.3214 129 83C132.685 96.5551 129 119 129 119C129 119 80.6828 102.302 55 83C33.3605 66.7367 14.0962 59.1435 6.99998 33C3.11593 18.6904 6.99997 -4.99989 6.99997 -4.99989L274 -71L1518.91 -88.6309L1518.91 265.3Z" fill="url(#paint0_linear_187_19)"/>
<path d="M685 243C673.61 231.671 685 201.796 685 201.796L711 250.904C721.154 270.082 692.519 250.478 685 243Z" fill="url(#paint1_linear_187_19)"/>
<path d="M469 216.013C472.748 204.985 488 193 488 193C488 193 493.443 213.732 488 225C483.556 234.2 478.515 246.654 469 243C459.172 239.226 465.605 226.002 469 216.013Z" fill="url(#paint2_linear_187_19)"/>
<path d="M1126 308C1112.36 309.401 1145.96 279.054 1145.96 279.054C1145.96 279.054 1147.17 286.49 1145.96 291C1143.3 300.879 1136.17 306.955 1126 308Z" fill="url(#paint3_linear_187_19)"/>
<path d="M1518.91 265.3C1518.91 265.3 1391.01 241.408 1393.91 279.054C1395.7 302.276 1333.52 380.334 1314.55 419.559C1301.74 446.054 1345.55 469.382 1380.04 469.574C1404.9 469.712 1423.36 417.267 1411.19 388.863C1402.24 367.992 1482.62 340.41 1482.62 340.41C1482.62 340.41 1447.2 376.86 1439.44 405.838C1432.29 432.531 1453.02 451.453 1447.05 461.938C1434.17 484.564 1404.19 481.164 1379.79 496.8C1313.61 539.225 1280.99 501.502 1267.84 424.905C1261.51 388.002 1304.05 353.414 1273.81 324.835C1166.46 223.383 1340.16 219.081 1330.06 158.576C1324.31 124.113 1183.96 49.6523 1206.38 151.482C1228.8 253.311 1109.01 243.122 1100.56 302.25C1100.56 302.25 1082.83 242.089 1145.96 216.013C1209.08 189.936 1073.01 74.703 1067.7 165.927C1061.03 178.867 1052.17 191.337 1037.55 201.796C1004 225.789 921.006 218.366 939.733 250.904C950.886 270.281 996.283 280.375 983.72 323.223C973.178 359.175 965.569 383.436 982.877 417.716C999.095 449.835 969.904 466.883 899.334 458.894C862.177 454.688 904.934 513.382 925.035 534.315C945.135 555.248 806.787 449.088 858.934 439.45C931.196 426.094 983.583 401.508 900.305 349.987C883.937 339.861 879.583 328.005 859.976 322.535C807.555 307.911 782.047 416.6 782.047 416.6C782.047 416.6 734.918 349.965 738.503 302.25C741.246 265.742 790 129 697 165.927C656.078 182.176 751.278 40.205 711 57.9996C675.256 73.7912 662.518 160.992 650 198C632.341 250.207 704 291 704 291C704 291 606.088 288.009 604 250.904C595 90.9996 697.051 13.6757 620 48.9996C556.197 78.2503 536 238 566 225C592.191 213.65 469 308 469 308C469 308 520.887 232.822 525 165.927C526.435 142.595 509.031 97.7082 488 52.8709C409.36 -44.5539 383.239 90.6841 428.376 164.911C428.619 165.243 428.827 165.581 429 165.927C428.791 165.59 428.583 165.251 428.376 164.911C419.79 153.159 368.544 148.774 317 52.871C264 -45.7398 240.665 37.0156 191 33C138.076 28.7208 39.5966 -17.7744 55 33C65.131 66.3949 119.845 49.3214 129 83C132.685 96.5551 129 119 129 119C129 119 80.6828 102.302 55 83C33.3605 66.7367 14.0962 59.1435 6.99998 33C3.11593 18.6904 6.99997 -4.99989 6.99997 -4.99989L274 -71L1518.91 -88.6309L1518.91 265.3Z" stroke="black"/>
<path d="M685 243C673.61 231.671 685 201.796 685 201.796L711 250.904C721.154 270.082 692.519 250.478 685 243Z" stroke="black"/>
<path d="M469 216.013C472.748 204.985 488 193 488 193C488 193 493.443 213.732 488 225C483.556 234.2 478.515 246.654 469 243C459.172 239.226 465.605 226.002 469 216.013Z" stroke="black"/>
<path d="M1126 308C1112.36 309.401 1145.96 279.054 1145.96 279.054C1145.96 279.054 1147.17 286.49 1145.96 291C1143.3 300.879 1136.17 306.955 1126 308Z" stroke="black"/>
<path d="M650 198C632.341 250.208 704 291 704 291C704 291 639.189 266.373 626 230C614.176 197.393 649.428 182.412 657 148.5C662.656 123.165 656.692 102.941 675 84.5004C685.541 73.8821 697.981 65.6678 705.134 61.3554C707.018 60.022 708.972 58.8963 711 58.0004C711 58.0004 708.738 59.1826 705.134 61.3554C673.811 83.5248 661.807 163.093 650 198Z" fill="url(#paint4_linear_187_19)" stroke="black"/>
<path d="M1267.34 315.412C1168.29 214.006 1328.68 209.63 1319.39 149.129C1314.1 114.669 1190.8 71.5548 1211.44 173.374" stroke="black"/>
<path d="M1173 -0.106567C1173 -0.106567 1229.67 48.0674 1261.25 67.1611C1277.42 76.9339 1290.83 74.3155 1310.95 76.7708C1339.72 80.2816 1347.79 77.8571 1364.71 59.1531C1385 36.7305 1417.1 45.1371 1436.73 55.149" stroke="black" stroke-width="0.5"/>
<path d="M1274.3 324.534C1304.55 353.114 1262.01 387.701 1268.34 424.604C1268.34 424.604 1304.98 380.604 1305.88 341.837C1306.42 318.646 1270.28 302.756 1288.64 260.155C1306.99 217.554 1352.54 183.277 1331.24 157.652C1341.34 218.158 1166.95 223.083 1274.3 324.534Z" fill="url(#paint5_linear_187_19)" stroke="black"/>
<path d="M1312.82 430.185C1312.57 426.642 1313.25 422.981 1315.05 419.258C1315.05 419.258 1313.82 423.652 1312.82 430.185C1314.36 451.853 1350.9 469.108 1380.54 469.273C1405.4 469.411 1423.86 416.966 1411.68 388.563C1402.74 367.692 1483.12 340.109 1483.12 340.109C1483.12 340.109 1442.91 355.332 1428.61 377.072C1409.84 405.631 1442.61 448.319 1411.68 469.273C1385.95 486.709 1352.64 497.912 1326.17 481.177C1309.43 470.597 1310.55 444.938 1312.82 430.185Z" fill="url(#paint6_linear_187_19)"/>
<path d="M1315.05 419.258C1302.24 445.753 1346.05 469.082 1380.54 469.273C1405.4 469.411 1423.86 416.966 1411.68 388.563C1402.74 367.692 1483.12 340.109 1483.12 340.109C1483.12 340.109 1442.91 355.332 1428.61 377.072C1409.84 405.631 1442.61 448.319 1411.68 469.273C1385.95 486.709 1352.64 497.912 1326.17 481.177C1302.02 465.912 1315.05 419.258 1315.05 419.258Z" stroke="black"/>
<path d="M1038.04 201.497C1052.67 191.037 1061.53 178.568 1068.2 165.628C1073.5 74.4037 1209.57 189.637 1146.45 215.714C1083.33 241.79 1101.05 301.951 1101.05 301.951C1101.05 301.951 1100.67 265.217 1115.19 244.941C1133.16 219.838 1174.54 230.107 1179.09 201.497C1182.91 177.451 1169.32 154.274 1151.7 134.43C1131.77 111.982 1092.61 92.1819 1058.39 96.7917C1026.78 101.049 1069.21 135.422 1058.39 159.255C1047.86 182.438 1038.04 201.497 1038.04 201.497Z" fill="url(#paint7_linear_187_19)" stroke="black"/>
<path d="M859.431 439.149C807.285 448.788 945.632 554.947 925.532 534.014C925.532 534.014 855.356 485.882 871.753 452.348C886.879 421.414 959.199 449.319 963.041 416.299C966.019 390.707 961.036 367.6 944.784 344.622C936.105 332.352 925.646 335.339 910.297 328.223C880.404 314.365 873.614 284.033 839.295 280.175C769.115 272.286 782.545 416.299 782.545 416.299C782.545 416.299 808.053 307.61 860.473 322.235C880.08 327.705 884.434 339.56 900.803 349.687C984.081 401.207 931.693 425.793 859.431 439.149Z" fill="url(#paint8_linear_187_19)" stroke="black"/>
<path d="M860.931 100.925C813.191 107.24 793.249 60.3306 786.886 22.4459C785.167 12.2152 786.886 -3.98068 786.886 -3.98068H546.499C546.499 -3.98068 558.276 29.2149 556.999 37.6612C555.731 46.0541 543.099 76.5917 534.961 96.1021C535.02 97.7644 534.73 99.3761 533.999 100.925C524.294 121.49 527.968 112.867 534.961 96.1021C534.48 82.5631 510.861 65.6665 513.999 52.0757C516.428 41.5576 525.109 43.3833 527.499 32.8564C529.515 23.9784 497.499 -3.98068 497.499 -3.98068H546.499H786.886H985.203C988.048 -4.02388 989.749 -3.98068 989.749 -3.98068H1183.48H1469.52C1469.52 -3.98068 1510.74 13.7991 1510.09 32.8564C1509.34 55.2434 1477.06 75.8075 1451.26 66.4902C1435.68 60.8608 1441.32 45.0033 1426.92 37.6612C1407.29 27.6493 1389.65 32.8724 1367.08 37.6612C1338.96 43.6268 1333.97 74.0051 1305.2 70.4943C1285.08 68.039 1279.78 55.4421 1263.61 45.6693C1232.03 26.5756 1183.48 -3.98068 1183.48 -3.98068H989.749H985.203C973.602 -3.80458 942.97 -2.19279 930.919 9.63302C907.471 32.642 1007.78 76.3158 970.477 78.5023C946.481 79.9089 942.808 52.2409 918.747 52.0757C885.678 51.8487 893.547 96.6107 860.931 100.925Z" fill="url(#paint9_linear_187_19)"/>
<path d="M786.886 -3.98068H1469.52C1469.52 -3.98068 1510.74 13.7991 1510.09 32.8564C1509.34 55.2434 1477.06 75.8075 1451.26 66.4902C1435.68 60.8608 1441.32 45.0033 1426.92 37.6612C1407.29 27.6493 1389.65 32.8724 1367.08 37.6612C1338.96 43.6268 1333.97 74.0051 1305.2 70.4943C1285.08 68.039 1279.78 55.4421 1263.61 45.6693C1232.03 26.5756 1183.48 -3.98068 1183.48 -3.98068H989.749C989.749 -3.98068 945.926 -5.09392 930.919 9.63302C907.471 32.642 1007.78 76.3158 970.477 78.5023C946.481 79.9089 942.808 52.2409 918.747 52.0757C885.678 51.8487 893.547 96.6107 860.931 100.925C813.191 107.24 793.249 60.3306 786.886 22.4459C785.167 12.2152 786.886 -3.98068 786.886 -3.98068ZM786.886 -3.98068H546.499M546.499 -3.98068C546.499 -3.98068 558.276 29.2149 556.999 37.6612C554.641 53.266 512.999 145.423 533.999 100.925C540.683 86.7621 510.476 67.3351 513.999 52.0757C516.428 41.5576 525.109 43.3833 527.499 32.8564C529.515 23.9784 497.499 -3.98068 497.499 -3.98068H546.499Z" stroke="black"/>
<path d="M788.578 -7.31372C794.941 30.571 813.869 121.524 861.609 115.21C894.225 110.895 886.356 66.1334 919.425 66.3604C943.486 66.5256 948.174 85.3847 972.17 83.9781" stroke="black"/>
<g filter="url(#filter0_f_187_19)">
<path d="M880.322 192.551C880.322 216.434 814.454 290.588 787.005 290.588C759.555 290.588 780.919 216.434 780.919 192.551C780.919 168.668 770.713 104 798.162 104C825.612 104 880.322 168.668 880.322 192.551Z" fill="black" fill-opacity="0.5"/>
</g>
<g filter="url(#filter1_f_187_19)">
<path d="M1421.51 177.673C1421.51 201.555 1360.72 264.16 1333.27 264.16C1305.82 264.16 1379.73 166.782 1379.73 142.899C1379.73 119.017 1314.95 92.7871 1342.4 92.7871C1369.85 92.7871 1421.51 153.79 1421.51 177.673Z" fill="black" fill-opacity="0.5"/>
</g>
<g filter="url(#filter2_f_187_19)">
<path d="M664.115 -6.95179C675.818 -0.185756 693.918 39.3046 688.239 49.1266C682.561 58.9487 650.135 4.91355 638.432 -1.85248C626.729 -8.61851 600.474 7.13199 606.152 -2.69009C611.831 -12.5122 652.412 -13.7178 664.115 -6.95179Z" fill="black" fill-opacity="0.7"/>
</g>
<path d="M785.537 410.573C785.115 393.385 850.825 310.233 900.153 349.846C926.351 370.885 943.768 397.094 943.768 397.094" stroke="black"/>
<defs>
<filter id="filter0_f_187_19" x="733" y="64" width="187.323" height="266.588" filterUnits="userSpaceOnUse" color-interpolation-filters="sRGB">
<feFlood flood-opacity="0" result="BackgroundImageFix"/>
<feBlend mode="normal" in="SourceGraphic" in2="BackgroundImageFix" result="shape"/>
<feGaussianBlur stdDeviation="20" result="effect1_foregroundBlur_187_19"/>
</filter>
<filter id="filter1_f_187_19" x="1287.16" y="52.7871" width="174.357" height="251.372" filterUnits="userSpaceOnUse" color-interpolation-filters="sRGB">
<feFlood flood-opacity="0" result="BackgroundImageFix"/>
<feBlend mode="normal" in="SourceGraphic" in2="BackgroundImageFix" result="shape"/>
<feGaussianBlur stdDeviation="20" result="effect1_foregroundBlur_187_19"/>
</filter>
<filter id="filter2_f_187_19" x="565.359" y="-51.2108" width="163.956" height="141.527" filterUnits="userSpaceOnUse" color-interpolation-filters="sRGB">
<feFlood flood-opacity="0" result="BackgroundImageFix"/>
<feBlend mode="normal" in="SourceGraphic" in2="BackgroundImageFix" result="shape"/>
<feGaussianBlur stdDeviation="20" result="effect1_foregroundBlur_187_19"/>
</filter>
<linearGradient id="paint0_linear_187_19" x1="794.405" y1="-110.789" x2="787.57" y2="460.394" gradientUnits="userSpaceOnUse">
<stop stop-color="#405CBF"/>
<stop offset="0.40625" stop-color="#B9A375"/>
<stop offset="0.875"/>
</linearGradient>
<linearGradient id="paint1_linear_187_19" x1="794.405" y1="-110.789" x2="787.57" y2="460.394" gradientUnits="userSpaceOnUse">
<stop stop-color="#405CBF"/>
<stop offset="0.40625" stop-color="#B9A375"/>
<stop offset="0.875"/>
</linearGradient>
<linearGradient id="paint2_linear_187_19" x1="794.405" y1="-110.789" x2="787.57" y2="460.394" gradientUnits="userSpaceOnUse">
<stop stop-color="#405CBF"/>
<stop offset="0.40625" stop-color="#B9A375"/>
<stop offset="0.875"/>
</linearGradient>
<linearGradient id="paint3_linear_187_19" x1="794.405" y1="-110.789" x2="787.57" y2="460.394" gradientUnits="userSpaceOnUse">
<stop stop-color="#405CBF"/>
<stop offset="0.40625" stop-color="#B9A375"/>
<stop offset="0.875"/>
</linearGradient>
<linearGradient id="paint4_linear_187_19" x1="542.761" y1="389.519" x2="545.807" y2="-158.805" gradientUnits="userSpaceOnUse">
<stop/>
<stop offset="1" stop-color="#907334"/>
</linearGradient>
<linearGradient id="paint5_linear_187_19" x1="1147.64" y1="537.965" x2="1151.13" y2="-90.9776" gradientUnits="userSpaceOnUse">
<stop/>
<stop offset="1" stop-color="#907334"/>
</linearGradient>
<linearGradient id="paint6_linear_187_19" x1="1153.22" y1="552.286" x2="1155.18" y2="199.315" gradientUnits="userSpaceOnUse">
<stop/>
<stop offset="1" stop-color="#907334"/>
</linearGradient>
<linearGradient id="paint7_linear_187_19" x1="905.771" y1="388.597" x2="908.459" y2="-95.2887" gradientUnits="userSpaceOnUse">
<stop/>
<stop offset="1" stop-color="#907334"/>
</linearGradient>
<linearGradient id="paint8_linear_187_19" x1="610.948" y1="644.346" x2="614.3" y2="41.1499" gradientUnits="userSpaceOnUse">
<stop/>
<stop offset="1" stop-color="#907334"/>
</linearGradient>
<linearGradient id="paint9_linear_187_19" x1="1117" y1="-47" x2="1113.92" y2="229.033" gradientUnits="userSpaceOnUse">
<stop stop-color="#AFAFAF"/>
<stop offset="1" stop-color="#FDBA37" stop-opacity="0"/>
</linearGradient>
</defs>
</svg>
