<svg width="282" height="976" viewBox="0 0 282 976" fill="none" xmlns="http://www.w3.org/2000/svg">
<path d="M135.494 495.271C164.157 517.493 207.218 429.242 110.66 421.163L148.87 380.137C165.053 349.701 135.494 328.583 135.494 328.583C135.494 328.583 104.815 304.911 76.2563 328.583C76.2563 328.583 109.573 272.48 148.87 275.13C164.511 276.184 171.524 282.242 185.997 286.876C209.076 294.264 220.98 300.53 244.924 306.097C244.924 306.097 215.457 272.322 208.446 247.607C201.97 224.78 199.526 210.153 208.446 187.809C216.314 168.099 244.924 142.96 244.924 142.96C244.924 142.96 226.677 112.152 208.446 95.9752C189.041 78.7569 177.948 64.6484 148.87 59.669C134.312 57.1761 110.66 59.669 110.66 59.669C110.66 59.669 169.485 24.8037 185.997 18.4322C231.672 0.80836 280 3 280 3L280 810.112V973.5C280 973.5 168.192 987.59 148.87 952.328C144.111 943.643 142.5 928.233 142.5 928.233C142.5 928.233 175.859 944.058 196.5 938.496C220.555 932.013 234.169 916.158 237 893.876C239.843 871.5 208.446 842.147 208.446 842.147C175.615 842.147 148.87 785.265 148.87 785.265C152.089 816.25 111.031 830.6 76.2563 831.419C48.2245 832.079 24.0322 826.412 11.286 804.068C-1.09378 782.367 -4.50118 753.776 22.7514 742.53C51.6606 730.599 45.2897 715.663 56.6311 700.097C68.5474 683.741 125.939 682.701 125.939 682.701C125.939 682.701 74.756 669.341 47.593 651.932C21.8417 635.428 14.1242 623.036 2.67857 598.94C36.7223 629.38 44.3861 616.66 76.2563 611.56C105.977 579.263 110.652 632.452 135.494 579.461C101.963 522.827 106.831 473.048 135.494 495.271Z" fill="black"/>
<path d="M148.87 785.265C152.089 816.25 111.031 830.6 76.2563 831.419C48.2245 832.079 24.0322 826.412 11.286 804.068C-1.09378 782.367 -4.50118 753.776 22.7514 742.53C51.6606 730.599 45.2897 715.663 56.6311 700.097C68.5474 683.741 125.939 682.701 125.939 682.701C125.939 682.701 74.756 669.341 47.593 651.932C21.8417 635.428 14.1242 623.036 2.67857 598.94C36.7223 629.38 44.3861 616.66 76.2563 611.56C105.977 579.263 110.652 632.452 135.494 579.461C101.963 522.827 106.831 473.048 135.494 495.271C164.157 517.493 207.218 429.242 110.66 421.163L148.87 380.137C165.053 349.701 135.494 328.583 135.494 328.583C135.494 328.583 104.815 304.911 76.2563 328.583C76.2563 328.583 109.573 272.48 148.87 275.13C164.511 276.184 171.524 282.242 185.997 286.876C209.076 294.264 220.98 300.53 244.924 306.097C244.924 306.097 215.457 272.322 208.446 247.607C201.97 224.78 199.526 210.153 208.446 187.809C216.314 168.099 244.924 142.96 244.924 142.96C244.924 142.96 226.677 112.152 208.446 95.9752C189.041 78.7569 177.948 64.6484 148.87 59.669C134.312 57.1761 110.66 59.669 110.66 59.669C110.66 59.669 169.485 24.8037 185.997 18.4322C231.672 0.80836 280 3 280 3L280 810.112V973.5C280 973.5 168.192 987.59 148.87 952.328C144.111 943.643 142.5 928.233 142.5 928.233C142.5 928.233 175.859 944.058 196.5 938.496C220.555 932.013 234.169 916.158 237 893.876C239.843 871.5 208.446 842.147 208.446 842.147M148.87 785.265C147.259 769.762 142.035 757.003 125.939 751.077C106.179 743.801 76.2563 771.59 76.2563 771.59M148.87 785.265C148.87 785.265 175.615 842.147 208.446 842.147M208.446 842.147C189.061 836.311 241.277 842.147 208.446 842.147Z" stroke="url(#paint0_linear_187_98)" stroke-width="4" stroke-linecap="round" stroke-linejoin="round"/>
<defs>
<linearGradient id="paint0_linear_187_98" x1="149.317" y1="559.413" x2="236.496" y2="560.841" gradientUnits="userSpaceOnUse">
<stop stop-color="#D8C996"/>
<stop offset="1" stop-color="#D8C996" stop-opacity="0"/>
</linearGradient>
</defs>
</svg>
