<svg width="360" height="337" viewBox="0 0 360 337" fill="none" xmlns="http://www.w3.org/2000/svg">
<circle cx="178" cy="126" r="1" fill="black"/>
<circle cx="280" cy="89" r="1" fill="black"/>
<circle cx="298" cy="109" r="1" fill="black"/>
<circle cx="353" cy="204" r="1" fill="black"/>
<circle cx="341.5" cy="205.5" r="2.5" fill="black"/>
<circle cx="26.5" cy="188.5" r="2.5" fill="black"/>
<circle cx="197.5" cy="13.5" r="2.5" fill="black"/>
<line x1="74.4919" y1="26.9106" x2="74.6708" y2="27.8944" stroke="black"/>
<line x1="259.492" y1="92.9106" x2="259.671" y2="93.8944" stroke="black"/>
<line x1="123.492" y1="210.911" x2="123.671" y2="211.894" stroke="black"/>
<line x1="174.492" y1="130.911" x2="174.671" y2="131.894" stroke="black"/>
<line x1="118.492" y1="173.911" x2="118.671" y2="174.894" stroke="black"/>
<line x1="84.4919" y1="174.911" x2="84.6708" y2="175.894" stroke="black"/>
<path d="M93.5001 138C93.5001 138 87.0752 146.873 85.5001 153.5C80.5242 174.436 115.103 176.676 118 198C120.463 216.126 104.231 224.724 105 243C105.42 252.988 110.5 268 110.5 268" stroke="black"/>
<path d="M100.5 131.5C100.5 131.5 85.575 147.373 83.9999 154C79.024 174.936 117.245 173.176 120.143 194.5C122.605 212.626 106.373 221.224 107.143 239.5C107.563 249.488 113.489 268 113.489 268" stroke="black" stroke-width="0.5"/>
<path d="M300.138 173.113C298.708 149.608 360.178 167.535 360.178 167.535L361.755 -56.4593L0.763874 -59L-1.47414 258.992C-1.47414 258.992 11.0997 191.13 36.9401 200.261C46.6053 203.676 48.7514 211.079 56.82 217.401C97.8714 249.569 72.0474 264.92 36.4264 273.259C10.7213 279.277 78.9186 345.56 69.0103 332.49C59.1021 319.42 38.0251 282.773 56.3414 285.4C91.1283 290.387 105.518 279.743 97.5234 259.689C88.9914 238.286 92.7424 223.138 97.9386 200.69C104.132 173.937 81.7534 167.635 76.2559 155.537C67.0247 135.221 107.934 139.855 124.473 124.875C131.683 118.344 136.048 110.559 139.338 102.479C141.952 45.5216 209.027 117.47 177.912 133.751C146.796 150.033 155.532 187.595 155.532 187.595C159.701 150.677 218.749 157.039 207.696 93.4601C196.643 29.8807 265.83 76.3716 268.666 97.8893C273.645 135.667 188.017 138.353 240.935 201.697C255.842 219.541 234.874 241.136 237.995 264.178C244.474 312.003 260.555 335.556 293.181 309.067C305.205 299.304 319.986 301.427 326.335 287.3C329.277 280.754 319.056 268.939 322.581 252.273C326.408 234.18 343.869 211.421 343.869 211.421C343.869 211.421 304.247 228.643 308.655 241.674C314.655 259.409 305.557 292.154 293.3 292.067C276.301 291.948 254.703 277.382 261.019 260.839C270.37 236.349 301.019 187.612 300.138 173.113Z" fill="url(#paint0_linear_36_1205)" stroke="black"/>
<path d="M300.138 173.113C298.708 149.608 360.178 167.535 360.178 167.535L361.755 -56.4593L0.763874 -59L-1.47414 258.992C-1.47414 258.992 11.0997 191.13 36.9401 200.261C46.6053 203.676 48.7514 211.079 56.82 217.401C97.8714 249.569 72.0474 264.92 36.4264 273.259C10.7213 279.277 78.9186 345.56 69.0103 332.49C59.1021 319.42 38.0251 282.773 56.3414 285.4C91.1283 290.387 105.518 279.743 97.5234 259.689C88.9914 238.286 92.7424 223.138 97.9386 200.69C104.132 173.937 81.7534 167.635 76.2559 155.537C67.0247 135.221 107.934 139.855 124.473 124.875C131.683 118.344 136.048 110.559 139.338 102.479C141.952 45.5216 209.027 117.47 177.912 133.751C146.796 150.033 155.532 187.595 155.532 187.595C159.701 150.677 218.749 157.039 207.696 93.4601C196.643 29.8807 265.83 76.3716 268.666 97.8893C273.645 135.667 188.017 138.353 240.935 201.697C255.842 219.541 234.874 241.136 237.995 264.178C244.474 312.003 260.555 335.556 293.181 309.067C305.205 299.304 319.986 301.427 326.335 287.3C329.277 280.754 319.056 268.939 322.581 252.273C326.408 234.18 343.869 211.421 343.869 211.421C343.869 211.421 304.247 228.643 308.655 241.674C314.655 259.409 305.557 292.154 293.3 292.067C276.301 291.948 254.703 277.382 261.019 260.839C270.37 236.349 301.019 187.612 300.138 173.113Z" fill="url(#paint1_linear_36_1205)" stroke="black"/>
<path d="M237.5 196C188.673 132.685 267.738 129.953 263.161 92.1779C260.554 70.662 199.773 43.7427 209.944 107.316" stroke="black"/>
<path d="M191 -1C191 -1 218.931 29.0784 234.5 41C242.469 47.1018 249.081 45.467 259 47C273.183 49.1921 277.158 47.6782 285.5 36C295.5 22 311.323 27.2488 321 33.5" stroke="black" stroke-width="0.5"/>
<path d="M240.935 201.697C255.842 219.541 234.874 241.136 237.995 264.177C237.995 264.177 256.056 236.705 256.5 212.5C256.766 198.02 238.953 188.099 248 161.5C257.047 134.901 279.5 113.5 269 97.5C273.979 135.278 188.017 138.353 240.935 201.697Z" fill="url(#paint2_linear_36_1205)" stroke="black"/>
<path d="M259.92 267.662C259.795 265.45 260.132 263.164 261.019 260.839C261.019 260.839 260.414 263.583 259.92 267.662C260.682 281.191 278.69 291.965 293.3 292.067C305.557 292.154 314.655 259.409 308.655 241.674C304.247 228.643 343.869 211.421 343.869 211.421C343.869 211.421 324.046 220.926 317 234.5C307.744 252.331 323.901 278.984 308.655 292.067C295.97 302.954 279.549 309.948 266.5 299.5C258.25 292.894 258.803 276.873 259.92 267.662Z" fill="url(#paint3_linear_36_1205)"/>
<path d="M261.019 260.839C254.703 277.382 276.301 291.948 293.3 292.067C305.556 292.154 314.655 259.409 308.655 241.674C304.247 228.643 343.869 211.421 343.869 211.421C343.869 211.421 324.046 220.926 317 234.5C307.744 252.331 323.901 278.984 308.655 292.067C295.97 302.954 279.549 309.948 266.5 299.5C254.597 289.969 261.019 260.839 261.019 260.839Z" stroke="black"/>
<path d="M124.472 124.875C131.683 118.344 136.048 110.558 139.337 102.479C141.952 45.5216 209.027 117.47 177.911 133.751C146.796 150.033 155.532 187.595 155.532 187.595C155.532 187.595 155.345 164.66 162.5 152C171.357 136.326 191.757 142.738 194 124.875C195.884 109.862 189.186 95.3901 180.5 83C170.675 68.9844 151.372 56.6218 134.5 59.5C118.917 62.1581 139.833 83.6197 134.5 98.5C129.311 112.975 124.472 124.875 124.472 124.875Z" fill="url(#paint4_linear_36_1205)" stroke="black"/>
<path d="M36.4263 273.259C10.7212 279.277 78.9185 345.56 69.0102 332.49C69.0102 332.49 34.4174 302.437 42.5001 281.5C49.9563 262.186 85.6059 279.609 87.5 258.992C88.9681 243.013 86.5115 228.586 78.5001 214.239C74.222 206.578 69.0665 208.443 61.5001 204C46.7648 195.347 43.4174 176.409 26.5 174C-8.09419 169.075 -1.47423 258.992 -1.47423 258.992C-1.47423 258.992 11.0996 191.13 36.9401 200.261C46.6052 203.676 48.7513 211.079 56.8199 217.401C97.8713 249.569 72.0473 264.92 36.4263 273.259Z" fill="url(#paint5_linear_36_1205)" stroke="black"/>
<path d="M37.5 65.5C13.9668 69.4428 4.1366 40.1541 0.999994 16.5C0.152961 10.1123 0.999994 2.5494e-05 0.999994 2.5494e-05H98.7588C100.162 -0.0269484 101 2.5494e-05 101 2.5494e-05H196.5H337.5C337.5 2.5494e-05 357.816 11.1012 357.5 23C357.129 36.9778 341.215 49.8175 328.5 44C320.818 40.4851 323.596 30.5842 316.5 26C306.823 19.7488 298.126 23.01 287 26C273.14 29.7248 270.683 48.6921 256.5 46.5C246.581 44.967 243.969 37.1019 236 31C220.431 19.0785 196.5 2.5494e-05 196.5 2.5494e-05H101H98.7588C93.0402 0.109978 77.9406 1.11633 72 8.50003C60.4416 22.8662 109.888 50.1348 91.5 51.5C79.6713 52.3782 77.8608 35.1032 66 35C49.6989 34.8583 53.5777 62.8064 37.5 65.5Z" fill="url(#paint6_linear_36_1205)" stroke="black"/>
<path d="M1.5 -5.5C4.63661 18.1541 13.9668 74.9428 37.5 71C53.5777 68.3063 49.6989 40.3583 66 40.5C77.8608 40.6031 80.1713 52.3782 92 51.5" stroke="black"/>
<g filter="url(#filter0_f_36_1205)">
<path d="M27.5 112.289C27.5 127.2 -4.969 173.5 -18.5 173.5C-32.031 173.5 -21.5 127.2 -21.5 112.289C-21.5 97.3769 -26.5309 57 -13 57C0.531013 57 27.5 97.3769 27.5 112.289Z" fill="#170404" fill-opacity="0.5"/>
</g>
<g filter="url(#filter1_f_36_1205)">
<path d="M313.5 110C313.5 124.912 283.531 164 270 164C256.469 164 292.904 103.2 292.904 88.2886C292.904 73.3769 260.969 57 274.5 57C288.031 57 313.5 95.0883 313.5 110Z" fill="#170404" fill-opacity="0.5"/>
</g>
<path d="M0.000998172 255.416C-0.207157 244.684 32.1841 192.766 56.4998 217.5C69.414 230.636 77.9998 247 77.9998 247" stroke="black"/>
<defs>
<filter id="filter0_f_36_1205" x="-65.4038" y="17" width="132.904" height="196.5" filterUnits="userSpaceOnUse" color-interpolation-filters="sRGB">
<feFlood flood-opacity="0" result="BackgroundImageFix"/>
<feBlend mode="normal" in="SourceGraphic" in2="BackgroundImageFix" result="shape"/>
<feGaussianBlur stdDeviation="20" result="effect1_foregroundBlur_36_1205"/>
</filter>
<filter id="filter1_f_36_1205" x="226.987" y="17" width="126.513" height="187" filterUnits="userSpaceOnUse" color-interpolation-filters="sRGB">
<feFlood flood-opacity="0" result="BackgroundImageFix"/>
<feBlend mode="normal" in="SourceGraphic" in2="BackgroundImageFix" result="shape"/>
<feGaussianBlur stdDeviation="20" result="effect1_foregroundBlur_36_1205"/>
</filter>
<linearGradient id="paint0_linear_36_1205" x1="178.496" y1="334.957" x2="181.259" y2="-57.7296" gradientUnits="userSpaceOnUse">
<stop stop-color="#E6C265"/>
<stop offset="1" stop-color="#D32020"/>
</linearGradient>
<linearGradient id="paint1_linear_36_1205" x1="188.5" y1="-69" x2="180" y2="287.5" gradientUnits="userSpaceOnUse">
<stop stop-color="#405CBF"/>
<stop offset="0.40625" stop-color="#B9A375"/>
<stop offset="0.875"/>
</linearGradient>
<linearGradient id="paint2_linear_36_1205" x1="178.496" y1="334.957" x2="181.259" y2="-57.7297" gradientUnits="userSpaceOnUse">
<stop/>
<stop offset="1" stop-color="#907334"/>
</linearGradient>
<linearGradient id="paint3_linear_36_1205" x1="181.248" y1="343.898" x2="182.799" y2="123.517" gradientUnits="userSpaceOnUse">
<stop/>
<stop offset="1" stop-color="#907334"/>
</linearGradient>
<linearGradient id="paint4_linear_36_1205" x1="59.2691" y1="241.695" x2="61.3954" y2="-60.4238" gradientUnits="userSpaceOnUse">
<stop/>
<stop offset="1" stop-color="#907334"/>
</linearGradient>
<linearGradient id="paint5_linear_36_1205" x1="-86.0616" y1="401.378" x2="-83.411" y2="24.7667" gradientUnits="userSpaceOnUse">
<stop/>
<stop offset="1" stop-color="#907334"/>
</linearGradient>
<linearGradient id="paint6_linear_36_1205" x1="160.5" y1="66" x2="165" y2="-137" gradientUnits="userSpaceOnUse">
<stop stop-color="#E0E0E0"/>
<stop offset="1" stop-color="#FDBA37" stop-opacity="0"/>
</linearGradient>
</defs>
</svg>
